<?xml version="1.0" encoding="UTF-8" standalone="no"?>
<!-- Created with Inkscape (http://www.inkscape.org/) -->

<svg
   width="694.51636cm"
   height="458.08969cm"
   viewBox="0 0 2.1993018 1.4506174"
   version="1.1"
   id="svg1"
   xml:space="preserve"
   inkscape:version="1.4.2 (ebf0e940, 2025-05-08)"
   sodipodi:docname="istF2_noNodes.svg"
   inkscape:export-filename="..\..\Downloads\IST floor 1.png"
   inkscape:export-xdpi="96"
   inkscape:export-ydpi="96"
   xmlns:inkscape="http://www.inkscape.org/namespaces/inkscape"
   xmlns:sodipodi="http://sodipodi.sourceforge.net/DTD/sodipodi-0.dtd"
   xmlns="http://www.w3.org/2000/svg"
   xmlns:svg="http://www.w3.org/2000/svg"
   xmlns:rdf="http://www.w3.org/1999/02/22-rdf-syntax-ns#"
   xmlns:cc="http://creativecommons.org/ns#"
   xmlns:dc="http://purl.org/dc/elements/1.1/"><title
     id="title1">IST second floor</title><sodipodi:namedview
     id="namedview1"
     pagecolor="#505050"
     bordercolor="#eeeeee"
     borderopacity="1"
     inkscape:showpageshadow="0"
     inkscape:pageopacity="0"
     inkscape:pagecheckerboard="0"
     inkscape:deskcolor="#505050"
     inkscape:document-units="cm"
     inkscape:zoom="0.10389563"
     inkscape:cx="12940.872"
     inkscape:cy="8561.4766"
     inkscape:window-width="1440"
     inkscape:window-x="0"
     inkscape:window-y="31"
     inkscape:window-maximized="0"
     inkscape:current-layer="svg1"
     showgrid="true"
     inkscape:window-height="780"><inkscape:grid
       id="grid68"
       units="cm"
       originx="0.082645057"
       originy="-0.02392653"
       spacingx="0.0099999999"
       spacingy="0.0099999997"
       empcolor="#0099e5"
       empopacity="0.30196078"
       color="#0099e5"
       opacity="0.14901961"
       empspacing="5"
       enabled="true"
       visible="true" /></sodipodi:namedview><defs
     id="defs1"><linearGradient
       id="swatch3"
       inkscape:swatch="solid"><stop
         style="stop-color:#000000;stop-opacity:1;"
         offset="0"
         id="stop3" /></linearGradient><pattern
       id="EMFhbasepattern"
       patternUnits="userSpaceOnUse"
       width="6"
       height="6"
       x="0"
       y="0" /><inkscape:path-effect
       effect="spiro"
       id="path-effect72"
       is_visible="true"
       lpeversion="1" /><inkscape:path-effect
       effect="spiro"
       id="path-effect73"
       is_visible="true"
       lpeversion="1" /><inkscape:path-effect
       effect="spiro"
       id="path-effect74"
       is_visible="true"
       lpeversion="1" /><inkscape:path-effect
       effect="spiro"
       id="path-effect75"
       is_visible="true"
       lpeversion="1" /><inkscape:path-effect
       effect="spiro"
       id="path-effect76"
       is_visible="true"
       lpeversion="1" /><inkscape:path-effect
       effect="spiro"
       id="path-effect77"
       is_visible="true"
       lpeversion="1" /></defs><metadata
     id="metadata1"><rdf:RDF><cc:Work
         rdf:about=""><dc:title>IST second floor</dc:title><dc:creator><cc:Agent><dc:title>Jsut a bird</dc:title></cc:Agent></dc:creator><dc:subject><rdf:Bag><rdf:li>Map</rdf:li></rdf:Bag></dc:subject><dc:description>Florida Polytechnic University IST building first floor map</dc:description></cc:Work></rdf:RDF></metadata><g
     inkscape:groupmode="layer"
     id="layer15"
     inkscape:label="Walls"><path
       style="opacity:1;fill:#808080;fill-opacity:1;stroke:none;stroke-width:0.00316667;stroke-dasharray:none;stroke-opacity:1"
       d="m 0.48427061,0.65092128 0.0131154,0.0260882 c 0,0 0.008411,0.0173921 0.008839,0.034214 4.2768e-4,0.0168219 1.4256e-4,0.0327884 1.4256e-4,0.0327884 0,0 -7.1279e-4,0.0131154 -0.008268,0.0276563 -0.007556,0.0145409 -0.0161091,0.0277989 -0.0161091,0.0277989 l 0.12317039,0.0588765 0.0668599,0.0275138 c 0,0 0.10435269,0.0322181 0.11034014,0.0337863 0.005987,0.001568 0.10996134,0.0238562 0.11851484,0.0252818 0.008553,0.001426 0.0663588,0.007721 0.11467616,0.0105087 0.049246,0.002842 0.092628,0.002636 0.092628,0.002636 0,0 0.073737,6.9455e-4 0.1425439,-0.006773 0.034073,-0.003698 0.095455,-0.0112275 0.1432121,-0.0232025 0.047757,-0.0119748 0.1270195,-0.034823 0.1270195,-0.034823 l 0.048612,-0.0175354 0.042187,-0.0172799 0.1199506,-0.0576854 c 0,0 -0.010234,-0.0203589 -0.015784,-0.0300942 -0.00172,-0.006913 -0.00736,-0.0286542 -0.00736,-0.0286542 l 5.213e-4,-0.0319145 c 0,0 4.378e-4,-0.0152436 0.00663,-0.0280494 0.00652,-0.0134905 0.014215,-0.0312996 0.014215,-0.0312996 L 1.6097483,0.59220573 1.5669867,0.57574832 c 0,0 -0.1078146,-0.0359191 -0.1651028,-0.049482 -0.056004,-0.0132588 -0.1127735,-0.0235102 -0.1644631,-0.02707 -0.049068,-0.005374 -0.1082165,-0.005729 -0.1082165,-0.005729 l -0.044336,4.9724e-4 c 0,0 -0.044061,-5.6467e-4 -0.10592083,0.004562 -0.0610537,0.005932 -0.1158552,0.0162027 -0.14479454,0.0227604 -0.027086,0.005275 -0.0686355,0.0151197 -0.10793689,0.0280147 -0.0395823,0.0129872 -0.0791688,0.0259845 -0.0791688,0.0259845 l -0.0433133,0.017614 z"
       id="path76"
       sodipodi:nodetypes="ccccccccscscsscccccccscccscccccsccc"
       inkscape:label="Outer border" /><g
       inkscape:groupmode="layer"
       id="layer16"
       inkscape:label="section walls"><path
         style="opacity:1;fill:none;fill-opacity:1;stroke:#ccabe2;stroke-width:0.00316667;stroke-dasharray:none;stroke-opacity:1"
         d="m 1.5423429,0.80136971 c 0,0 -0.1194758,0.0379492 -0.1459797,0.0456187 -0.03238,0.00937 -0.1519672,0.0262307 -0.1519672,0.0262307 l -0.0077,-0.0487549 c 0,0 0.1160425,-0.0199582 0.1533928,-0.0296521 0.03735,-0.009694 0.1300132,-0.0402014 0.1300132,-0.0402014 0,0 0.00909,0.0115919 0.013032,0.022962 0.00555,0.0101604 0.00921,0.0237972 0.00921,0.023797 z"
         id="path75"
         sodipodi:nodetypes="csccsccc"
         inkscape:label="southwest center" /><path
         style="opacity:1;fill:none;fill-opacity:1;stroke:#ccabe2;stroke-width:0.00316667;stroke-dasharray:none;stroke-opacity:1"
         d="m 1.7305688,0.80051436 -0.1197144,0.0579622 c 0,0 -0.020897,-0.0408552 -0.025459,-0.0545408 -0.00456,-0.0136856 -0.011975,-0.0553126 -0.011975,-0.0553126 0,0 0.041057,-0.006273 0.07242,-0.006843 0.031363,-5.7023e-4 0.062726,-5.7023e-4 0.062726,-5.7023e-4 0,0 0.00175,0.0195204 0.00684,0.0290819 0.0057,0.008553 0.01516,0.0302224 0.01516,0.0302225 z"
         id="path73"
         sodipodi:nodetypes="ccsccccc"
         inkscape:label="south west" /><path
         style="opacity:1;fill:none;fill-opacity:1;stroke:#ccabe2;stroke-width:0.00316667;stroke-dasharray:none;stroke-opacity:1"
         d="m 1.5679732,0.87535834 c 0,0 -0.112506,0.0412116 -0.2187446,0.061692 -0.1020525,0.0196735 -0.219551,0.0203624 -0.219551,0.0203624 l -0.00101,-0.042136 c 0,0 0.110925,-0.001105 0.2153172,-0.020564 0.083361,-0.0155382 0.2088679,-0.0608856 0.2088679,-0.0608856 z"
         id="path74"
         sodipodi:nodetypes="csccscc"
         inkscape:label="west south" /><path
         style="opacity:1;fill:none;fill-opacity:1;stroke:#ccabe2;stroke-width:0.00316667;stroke-dasharray:none;stroke-opacity:1"
         d="m 1.5417726,0.64978081 c 0,0 -0.1194757,-0.0379492 -0.1459797,-0.0456187 -0.03238,-0.00937 -0.1519671,-0.0262307 -0.1519671,-0.0262307 l -0.0077,0.0487549 c 0,0 0.1160425,0.0199582 0.1533928,0.0296521 0.03735,0.009694 0.1300132,0.0402014 0.1300132,0.0402014 0,0 0.00909,-0.0115919 0.013032,-0.022962 0.00555,-0.0101604 0.00921,-0.0237972 0.00921,-0.023797 z"
         id="path77"
         sodipodi:nodetypes="csccsccc"
         inkscape:label="southeast center" /><path
         style="opacity:1;fill:none;fill-opacity:1;stroke:#ccabe2;stroke-width:0.00316667;stroke-dasharray:none;stroke-opacity:1"
         d="M 1.7299986,0.65063616 1.6102841,0.59267396 c 0,0 -0.020897,0.0408552 -0.025459,0.0545408 -0.00456,0.0136856 -0.011975,0.0553126 -0.011975,0.0553126 0,0 0.041057,0.006273 0.07242,0.006843 0.031363,5.7023e-4 0.062726,5.7023e-4 0.062726,5.7023e-4 0,0 0.00174,-0.0195204 0.00684,-0.0290819 0.0057,-0.008553 0.01516,-0.0302224 0.01516,-0.0302225 z"
         id="path78"
         sodipodi:nodetypes="ccsccccc"
         inkscape:label="south east" /><path
         style="opacity:1;fill:none;fill-opacity:1;stroke:#ccabe2;stroke-width:0.00316667;stroke-dasharray:none;stroke-opacity:1"
         d="m 1.567403,0.57579218 c 0,0 -0.1125061,-0.0412116 -0.2187446,-0.061692 -0.1020525,-0.0196735 -0.219551,-0.0203624 -0.219551,-0.0203624 l -0.00101,0.042136 c 0,0 0.110925,0.001105 0.2153172,0.020564 0.083362,0.0155382 0.2088678,0.0608856 0.2088678,0.0608856 z"
         id="path79"
         sodipodi:nodetypes="csccscc"
         inkscape:label="east south" /><path
         style="opacity:1;fill:none;fill-opacity:1;stroke:#ccabe2;stroke-width:0.00316667;stroke-dasharray:none;stroke-opacity:1"
         d="m 0.67201991,0.80136971 c 0,0 0.11947574,0.0379492 0.14597972,0.0456187 0.0323804,0.00937 0.15196713,0.0262307 0.15196713,0.0262307 l 0.007698,-0.0487549 c 0,0 -0.11604251,-0.0199582 -0.15339279,-0.0296521 -0.0373503,-0.009694 -0.13001318,-0.0402014 -0.13001318,-0.0402014 0,0 -0.009089,0.0115919 -0.0130319,0.022962 -0.005555,0.0101604 -0.009207,0.0237972 -0.009207,0.023797 z"
         id="path80"
         sodipodi:nodetypes="csccsccc"
         inkscape:label="northwest center" /><path
         style="opacity:1;fill:none;fill-opacity:1;stroke:#ccabe2;stroke-width:0.00316667;stroke-dasharray:none;stroke-opacity:1"
         d="m 0.48379401,0.80051436 0.11971441,0.0579622 c 0,0 0.020897,-0.0408552 0.0254589,-0.0545408 0.004562,-0.0136856 0.0119749,-0.0553126 0.0119749,-0.0553126 0,0 -0.0410568,-0.006273 -0.0724196,-0.006843 -0.0313628,-5.7023e-4 -0.0627256,-5.7023e-4 -0.0627256,-5.7023e-4 0,0 -0.001745,0.0195204 -0.006843,0.0290819 -0.005702,0.008553 -0.0151601,0.0302224 -0.01516,0.0302225 z"
         id="path81"
         sodipodi:nodetypes="ccsccccc"
         inkscape:label="north west" /><path
         style="opacity:1;fill:none;fill-opacity:1;stroke:#ccabe2;stroke-width:0.00316667;stroke-dasharray:none;stroke-opacity:1"
         d="m 0.64638954,0.87535834 c 0,0 0.11250608,0.0412116 0.21874461,0.061692 0.10205255,0.0196735 0.21955105,0.0203624 0.21955105,0.0203624 l 0.00101,-0.042136 c 0,0 -0.11092506,-0.001105 -0.21531723,-0.020564 -0.0833615,-0.0155382 -0.20886784,-0.0608856 -0.20886784,-0.0608856 z"
         id="path82"
         sodipodi:nodetypes="csccscc"
         inkscape:label="west north" /><path
         style="opacity:1;fill:none;fill-opacity:1;stroke:#ccabe2;stroke-width:0.00316667;stroke-dasharray:none;stroke-opacity:1"
         d="m 0.67259014,0.64978081 c 0,0 0.11947574,-0.0379492 0.14597972,-0.0456187 0.0323804,-0.00937 0.15196713,-0.0262307 0.15196713,-0.0262307 l 0.007698,0.0487549 c 0,0 -0.11604251,0.0199582 -0.15339279,0.0296521 -0.0373503,0.009694 -0.13001318,0.0402014 -0.13001318,0.0402014 0,0 -0.009089,-0.0115919 -0.0130319,-0.022962 -0.005555,-0.0101604 -0.009207,-0.0237972 -0.009207,-0.023797 z"
         id="path83"
         sodipodi:nodetypes="csccsccc"
         inkscape:label="northeast center" /><path
         style="opacity:1;fill:none;fill-opacity:1;stroke:#ccabe2;stroke-width:0.00316667;stroke-dasharray:none;stroke-opacity:1"
         d="m 0.48436424,0.65063616 0.11971441,-0.0579622 c 0,0 0.020897,0.0408552 0.0254589,0.0545408 0.004562,0.0136856 0.0119749,0.0553126 0.0119749,0.0553126 0,0 -0.0410568,0.006273 -0.0724196,0.006843 -0.0313628,5.7023e-4 -0.0627256,5.7023e-4 -0.0627256,5.7023e-4 0,0 -0.001745,-0.0195204 -0.006843,-0.0290819 -0.005702,-0.008553 -0.0151601,-0.0302224 -0.01516,-0.0302225 z"
         id="path84"
         sodipodi:nodetypes="ccsccccc"
         inkscape:label="north east" /><path
         style="opacity:1;fill:none;fill-opacity:1;stroke:#ccabe2;stroke-width:0.00316667;stroke-dasharray:none;stroke-opacity:1"
         d="m 0.64695977,0.57579218 c 0,0 0.11250608,-0.0412116 0.21874461,-0.061692 0.10205255,-0.0196735 0.21955102,-0.0203624 0.21955102,-0.0203624 l 0.00101,0.042136 c 0,0 -0.11092503,0.001105 -0.2153172,0.020564 C 0.7875867,0.571976 0.66208036,0.6173234 0.66208036,0.6173234 Z"
         id="path85"
         sodipodi:nodetypes="csccscc"
         inkscape:label="east north" /><path
         style="fill:none;fill-opacity:0.69589;stroke:#ccabe2;stroke-width:0.00323288;stroke-dasharray:none"
         d="m 1.1293137,0.56842926 0.078725,0.004281 -0.00366,0.0482475 -0.076505,-0.005982 z"
         id="path186"
         sodipodi:nodetypes="ccccc" /><path
         style="fill:none;fill-opacity:0.69589;stroke:#ccabe2;stroke-width:0.00316667;stroke-dasharray:none"
         d="M 0.62297984,0.63352915 0.53345321,0.66802827 0.55084533,0.70908506"
         id="path194"
         sodipodi:nodetypes="ccc" /><path
         style="fill:none;fill-opacity:0.69589;stroke:#ccabe2;stroke-width:0.00316667;stroke-dasharray:none"
         d="M 0.58006978,0.65092127 0.56011162,0.61499658"
         id="path195" /><path
         style="fill:none;fill-opacity:0.69589;stroke:#ccabe2;stroke-width:0.00316667;stroke-dasharray:none"
         d="M 0.53373833,0.6685985 0.51919739,0.63352915"
         id="path196" /><path
         style="fill:none;fill-opacity:0.69589;stroke:#ccabe2;stroke-width:0.00316667;stroke-dasharray:none"
         d="m 0.62297984,0.81701091 -0.0895266,-0.0344991 0.0160816,-0.0407544 0.0873445,0.0273767 0.003629,-0.0201608 -0.0805906,-0.005099"
         id="path197"
         sodipodi:nodetypes="cccccc" /><path
         style="fill:none;fill-opacity:0.69589;stroke:#ccabe2;stroke-width:0.00316667;stroke-dasharray:none"
         d="M 0.53373833,0.78194156 0.51919739,0.81701091"
         id="path199" /><path
         style="fill:#ccabe2;fill-opacity:1;stroke:#ccabe2;stroke-width:0.00316667;stroke-dasharray:none"
         d="M 0.56772786,0.74554602 0.63808901,0.75058622 0.63587133,0.76772289 Z"
         id="path200" /><path
         style="fill:none;fill-opacity:0.69589;stroke:#ccabe2;stroke-width:0.00323288;stroke-dasharray:none"
         d="m 1.1293137,0.88237153 0.078725,-0.004281 -0.00366,-0.0482475 -0.076505,0.005982 z"
         id="path190"
         sodipodi:nodetypes="ccccc" /><path
         style="fill:#ccabe2;fill-opacity:1;stroke:#ccabe2;stroke-width:0.00316667;stroke-dasharray:none"
         d="m 0.56772786,0.7052375 0.0703611,-0.00504 -0.002218,-0.0171367 z"
         id="path115" /></g><g
       inkscape:groupmode="layer"
       id="layer17"
       inkscape:label="subroom walls"><g
         inkscape:groupmode="layer"
         id="g185"
         inkscape:label="subroom walls south"><path
           style="opacity:1;fill:none;fill-opacity:1;stroke:#ccabe2;stroke-width:0.00316667;stroke-dasharray:none;stroke-opacity:1"
           d="m 1.5430069,0.56945882 -0.014113,0.0415312"
           id="path138"
           sodipodi:nodetypes="cc" /><path
           style="opacity:1;fill:none;fill-opacity:1;stroke:#ccabe2;stroke-width:0.00316667;stroke-dasharray:none;stroke-opacity:1"
           d="m 1.5224429,0.56260416 -0.012903,0.0403216"
           id="path139"
           sodipodi:nodetypes="cc" /><path
           style="opacity:1;fill:none;fill-opacity:1;stroke:#ccabe2;stroke-width:0.00316667;stroke-dasharray:none;stroke-opacity:1"
           d="m 1.5026853,0.55574949 -0.014919,0.0403216"
           id="path140"
           sodipodi:nodetypes="cc" /><path
           style="opacity:1;fill:none;fill-opacity:1;stroke:#ccabe2;stroke-width:0.00316667;stroke-dasharray:none;stroke-opacity:1"
           d="m 1.4825245,0.55010446 -0.013709,0.0395151"
           id="path141"
           sodipodi:nodetypes="cc" /><path
           style="opacity:1;fill:none;fill-opacity:1;stroke:#ccabe2;stroke-width:0.00316667;stroke-dasharray:none;stroke-opacity:1"
           d="m 1.4599444,0.54244337 -0.014112,0.0407248"
           id="path142"
           sodipodi:nodetypes="cc" /><path
           style="opacity:1;fill:none;fill-opacity:1;stroke:#ccabe2;stroke-width:0.00316667;stroke-dasharray:none;stroke-opacity:1"
           d="M 1.4377675,0.5384112 1.4268805,0.5767167"
           id="path143"
           sodipodi:nodetypes="cc" /><path
           style="opacity:1;fill:none;fill-opacity:1;stroke:#ccabe2;stroke-width:0.00316667;stroke-dasharray:none;stroke-opacity:1"
           d="m 1.4151874,0.5307501 -0.01008,0.0419344"
           id="path144"
           sodipodi:nodetypes="cc" /><path
           style="opacity:1;fill:none;fill-opacity:1;stroke:#ccabe2;stroke-width:0.00305185;stroke-dasharray:none;stroke-opacity:1"
           d="M 1.3954871,0.52544278 1.3842499,0.56558159"
           id="path145"
           sodipodi:nodetypes="cc" /><path
           style="opacity:1;fill:none;fill-opacity:1;stroke:#ccabe2;stroke-width:0.00316667;stroke-dasharray:none;stroke-opacity:1"
           d="m 1.3740595,0.52147614 -0.00968,0.0395152"
           id="path146"
           sodipodi:nodetypes="cc" /><path
           style="opacity:1;fill:none;fill-opacity:1;stroke:#ccabe2;stroke-width:0.00316667;stroke-dasharray:none;stroke-opacity:1"
           d="m 1.3506729,0.51502469 -0.00847,0.0419344"
           id="path147"
           sodipodi:nodetypes="cc" /><path
           style="opacity:1;fill:none;fill-opacity:1;stroke:#ccabe2;stroke-width:0.00316667;stroke-dasharray:none;stroke-opacity:1"
           d="m 1.3276896,0.51139575 -0.00685,0.0395151"
           id="path148"
           sodipodi:nodetypes="cc" /><path
           style="opacity:1;fill:none;fill-opacity:1;stroke:#ccabe2;stroke-width:0.00316667;stroke-dasharray:none;stroke-opacity:1"
           d="m 1.3071256,0.50857323 -0.00645,0.0399184"
           id="path149"
           sodipodi:nodetypes="cc" /><path
           style="opacity:1;fill:none;fill-opacity:1;stroke:#ccabe2;stroke-width:0.00316667;stroke-dasharray:none;stroke-opacity:1"
           d="m 1.2813198,0.50575073 -0.00363,0.0399184"
           id="path150"
           sodipodi:nodetypes="cc" /><path
           style="opacity:1;fill:none;fill-opacity:1;stroke:#ccabe2;stroke-width:0.00316667;stroke-dasharray:none;stroke-opacity:1"
           d="m 1.2627719,0.50373464 -0.00565,0.0415312"
           id="path151"
           sodipodi:nodetypes="cc" /><path
           style="opacity:1;fill:none;fill-opacity:1;stroke:#ccabe2;stroke-width:0.00316667;stroke-dasharray:none;stroke-opacity:1"
           d="M 1.240595,0.5001057 1.235755,0.5424434"
           id="path152"
           sodipodi:nodetypes="cc" /><path
           style="opacity:1;fill:none;fill-opacity:1;stroke:#ccabe2;stroke-width:0.00316667;stroke-dasharray:none;stroke-opacity:1"
           d="m 1.2168053,0.49889606 -0.00363,0.0419344"
           id="path153"
           sodipodi:nodetypes="cc" /><path
           style="opacity:1;fill:none;fill-opacity:1;stroke:#ccabe2;stroke-width:0.00316667;stroke-dasharray:none;stroke-opacity:1"
           d="m 1.1946284,0.49728319 -0.00363,0.0423377"
           id="path154"
           sodipodi:nodetypes="cc" /><path
           style="opacity:1;fill:none;fill-opacity:1;stroke:#ccabe2;stroke-width:0.00316667;stroke-dasharray:none;stroke-opacity:1"
           d="m 1.1737793,0.49597571 -0.00294,0.0408226"
           id="path155"
           sodipodi:nodetypes="cc" /><path
           style="opacity:1;fill:none;fill-opacity:1;stroke:#ccabe2;stroke-width:0.0032516;stroke-dasharray:none;stroke-opacity:1"
           d="m 1.1510064,0.4955681 -0.00153,0.040632"
           id="path156"
           sodipodi:nodetypes="cc" /><path
           style="opacity:1;fill:none;fill-opacity:1;stroke:#ccabe2;stroke-width:0.00327363;stroke-dasharray:none;stroke-opacity:1"
           d="m 1.5124455,0.64170482 -0.015522,0.04701"
           id="path157"
           sodipodi:nodetypes="cc" /><path
           style="opacity:1;fill:none;fill-opacity:1;stroke:#ccabe2;stroke-width:0.00316667;stroke-dasharray:none;stroke-opacity:1"
           d="M 1.4787196,0.63075674 1.4668247,0.67833624"
           id="path158"
           sodipodi:nodetypes="cc" /><path
           style="opacity:1;fill:none;fill-opacity:1;stroke:#ccabe2;stroke-width:0.00360052;stroke-dasharray:none;stroke-opacity:1"
           d="M 1.4242054,0.61430623 1.4106605,0.66277921"
           id="path159"
           sodipodi:nodetypes="cc" /><path
           style="opacity:1;fill:none;fill-opacity:1;stroke:#ccabe2;stroke-width:0.00406823;stroke-dasharray:none;stroke-opacity:1"
           d="m 1.3761816,0.60112641 -0.012934,0.0489755"
           id="path160"
           sodipodi:nodetypes="cc" /><path
           style="opacity:1;fill:none;fill-opacity:1;stroke:#ccabe2;stroke-width:0.00316667;stroke-dasharray:none;stroke-opacity:1"
           d="m 1.2943062,0.58629605 -0.00795,0.0490886"
           id="path161"
           sodipodi:nodetypes="cc" /><path
           style="fill:none;fill-opacity:1;stroke:#ccabe2;stroke-width:0.00330738;stroke-dasharray:none;stroke-opacity:1"
           d="m 1.335262,0.59249674 -0.00848,0.05019"
           id="path161-8"
           sodipodi:nodetypes="cc" /><path
           style="opacity:1;fill:none;fill-opacity:1;stroke:#ccabe2;stroke-width:0.00316667;stroke-dasharray:none;stroke-opacity:1"
           d="M 1.5446198,0.88237461 1.5305072,0.84084341"
           id="path162"
           sodipodi:nodetypes="cc" /><path
           style="opacity:1;fill:none;fill-opacity:1;stroke:#ccabe2;stroke-width:0.00316667;stroke-dasharray:none;stroke-opacity:1"
           d="M 1.5240558,0.88922927 1.5111529,0.84890767"
           id="path163"
           sodipodi:nodetypes="cc" /><path
           style="opacity:1;fill:none;fill-opacity:1;stroke:#ccabe2;stroke-width:0.00316667;stroke-dasharray:none;stroke-opacity:1"
           d="M 1.5042982,0.89608394 1.4893792,0.85576234"
           id="path164"
           sodipodi:nodetypes="cc" /><path
           style="opacity:1;fill:none;fill-opacity:1;stroke:#ccabe2;stroke-width:0.00316667;stroke-dasharray:none;stroke-opacity:1"
           d="M 1.4841374,0.90172897 1.4704281,0.86221387"
           id="path165"
           sodipodi:nodetypes="cc" /><path
           style="opacity:1;fill:none;fill-opacity:1;stroke:#ccabe2;stroke-width:0.00316667;stroke-dasharray:none;stroke-opacity:1"
           d="M 1.4615573,0.90939006 1.4474448,0.86866526"
           id="path166"
           sodipodi:nodetypes="cc" /><path
           style="opacity:1;fill:none;fill-opacity:1;stroke:#ccabe2;stroke-width:0.00316667;stroke-dasharray:none;stroke-opacity:1"
           d="M 1.4393804,0.91342223 1.4284936,0.87511673"
           id="path167"
           sodipodi:nodetypes="cc" /><path
           style="opacity:1;fill:none;fill-opacity:1;stroke:#ccabe2;stroke-width:0.00316667;stroke-dasharray:none;stroke-opacity:1"
           d="m 1.4168003,0.92108333 -0.01008,-0.0419344"
           id="path168"
           sodipodi:nodetypes="cc" /><path
           style="opacity:1;fill:none;fill-opacity:1;stroke:#ccabe2;stroke-width:0.00316667;stroke-dasharray:none;stroke-opacity:1"
           d="M 1.3970427,0.9255187 1.3853494,0.8839875"
           id="path169"
           sodipodi:nodetypes="cc" /><path
           style="opacity:1;fill:none;fill-opacity:1;stroke:#ccabe2;stroke-width:0.00316667;stroke-dasharray:none;stroke-opacity:1"
           d="m 1.3756723,0.93035729 -0.00968,-0.0395152"
           id="path170"
           sodipodi:nodetypes="cc" /><path
           style="opacity:1;fill:none;fill-opacity:1;stroke:#ccabe2;stroke-width:0.00316667;stroke-dasharray:none;stroke-opacity:1"
           d="m 1.3522858,0.93680874 -0.00847,-0.0419344"
           id="path171"
           sodipodi:nodetypes="cc" /><path
           style="opacity:1;fill:none;fill-opacity:1;stroke:#ccabe2;stroke-width:0.00316667;stroke-dasharray:none;stroke-opacity:1"
           d="m 1.3293025,0.94043768 -0.00685,-0.0395151"
           id="path172"
           sodipodi:nodetypes="cc" /><path
           style="opacity:1;fill:none;fill-opacity:1;stroke:#ccabe2;stroke-width:0.00316667;stroke-dasharray:none;stroke-opacity:1"
           d="M 1.3087385,0.9432602 1.3022885,0.9033418"
           id="path173"
           sodipodi:nodetypes="cc" /><path
           style="opacity:1;fill:none;fill-opacity:1;stroke:#ccabe2;stroke-width:0.00316667;stroke-dasharray:none;stroke-opacity:1"
           d="M 1.2829327,0.9460827 1.2793027,0.9061643"
           id="path174"
           sodipodi:nodetypes="cc" /><path
           style="opacity:1;fill:none;fill-opacity:1;stroke:#ccabe2;stroke-width:0.00316667;stroke-dasharray:none;stroke-opacity:1"
           d="m 1.2643848,0.94809879 -0.00564,-0.0415312"
           id="path175"
           sodipodi:nodetypes="cc" /><path
           style="opacity:1;fill:none;fill-opacity:1;stroke:#ccabe2;stroke-width:0.00316667;stroke-dasharray:none;stroke-opacity:1"
           d="m 1.2422079,0.95172773 -0.00484,-0.0423377"
           id="path176"
           sodipodi:nodetypes="cc" /><path
           style="opacity:1;fill:none;fill-opacity:1;stroke:#ccabe2;stroke-width:0.00316667;stroke-dasharray:none;stroke-opacity:1"
           d="m 1.2184181,0.95293737 -0.00363,-0.0419344"
           id="path177"
           sodipodi:nodetypes="cc" /><path
           style="opacity:1;fill:none;fill-opacity:1;stroke:#ccabe2;stroke-width:0.00316667;stroke-dasharray:none;stroke-opacity:1"
           d="m 1.1962414,0.95455024 -0.00363,-0.0423377"
           id="path178"
           sodipodi:nodetypes="cc" /><path
           style="opacity:1;fill:none;fill-opacity:1;stroke:#ccabe2;stroke-width:0.00316667;stroke-dasharray:none;stroke-opacity:1"
           d="m 1.1756774,0.95414702 -0.00323,-0.0391119"
           id="path179"
           sodipodi:nodetypes="cc" /><path
           style="opacity:1;fill:none;fill-opacity:1;stroke:#ccabe2;stroke-width:0.00324399;stroke-dasharray:none;stroke-opacity:1"
           d="m 1.152691,0.95576578 -0.0016,-0.0399302"
           id="path180"
           sodipodi:nodetypes="cc" /><path
           style="opacity:1;fill:none;fill-opacity:1;stroke:#ccabe2;stroke-width:0.00316667;stroke-dasharray:none;stroke-opacity:1"
           d="M 1.4823229,0.81927134 1.4671188,0.77250843"
           id="path181"
           sodipodi:nodetypes="cc" /><path
           style="opacity:1;fill:none;fill-opacity:1;stroke:#ccabe2;stroke-width:0.0032606;stroke-dasharray:none;stroke-opacity:1"
           d="M 1.417554,0.84002198 1.405194,0.79147448"
           id="path182"
           sodipodi:nodetypes="cc" /><path
           style="opacity:1;fill:none;fill-opacity:1;stroke:#ccabe2;stroke-width:0.00316667;stroke-dasharray:none;stroke-opacity:1"
           d="M 1.3772852,0.85031895 1.3670031,0.80092505"
           id="path183"
           sodipodi:nodetypes="cc" /><path
           style="opacity:1;fill:none;fill-opacity:1;stroke:#ccabe2;stroke-width:0.00332115;stroke-dasharray:none;stroke-opacity:1"
           d="M 1.3367783,0.85852096 1.3281889,0.8094117"
           id="path184"
           sodipodi:nodetypes="cc" /><path
           style="opacity:1;fill:none;fill-opacity:1;stroke:#ccabe2;stroke-width:0.00316667;stroke-dasharray:none;stroke-opacity:1"
           d="M 1.295634,0.86382668 1.287973,0.81644878"
           id="path185"
           sodipodi:nodetypes="cc" /><path
           style="fill:none;fill-opacity:0.69589;stroke:#ccabe2;stroke-width:0.00316667;stroke-dasharray:none"
           d="m 1.1504599,0.57047366 -0.0029,0.0450914"
           id="path187"
           sodipodi:nodetypes="cc" /><path
           style="fill:none;fill-opacity:0.69589;stroke:#ccabe2;stroke-width:0.00322202;stroke-dasharray:none"
           d="m 1.1709705,0.57079915 -0.00267,0.0469432"
           id="path188"
           sodipodi:nodetypes="cc" /><path
           style="fill:none;fill-opacity:0.69589;stroke:#ccabe2;stroke-width:0.00316667;stroke-dasharray:none"
           d="m 1.1906471,0.5735121 -0.00328,0.0454499"
           id="path189"
           sodipodi:nodetypes="cc" /><path
           style="fill:none;fill-opacity:0.69589;stroke:#ccabe2;stroke-width:0.00323288;stroke-dasharray:none"
           d="m 1.0866743,0.56849971 -0.078725,0.004281 0.00366,0.0482475 0.076505,-0.005982 z"
           id="path186-8"
           sodipodi:nodetypes="ccccc" /><path
           style="fill:none;fill-opacity:0.69589;stroke:#ccabe2;stroke-width:0.00316667;stroke-dasharray:none"
           d="m 1.0655281,0.57054411 0.0029,0.0450914"
           id="path187-4"
           sodipodi:nodetypes="cc" /><path
           style="fill:none;fill-opacity:0.69589;stroke:#ccabe2;stroke-width:0.00322202;stroke-dasharray:none"
           d="m 1.0450175,0.5708696 0.00266,0.0469432"
           id="path188-5"
           sodipodi:nodetypes="cc" /><path
           style="fill:none;fill-opacity:0.69589;stroke:#ccabe2;stroke-width:0.00318976;stroke-dasharray:none"
           d="m 1.0253428,0.57286796 0.00328,0.0461663"
           id="path189-5"
           sodipodi:nodetypes="cc" /><path
           style="fill:#ccabe2;fill-opacity:1;stroke:#ccabe2;stroke-width:0.00316667;stroke-dasharray:none"
           d="M 1.4981483,0.76348913 1.5130673,0.80985895"
           id="path201" /><path
           style="fill:none;fill-opacity:0.69589;stroke:#ccabe2;stroke-width:0.00316667;stroke-dasharray:none"
           d="m 1.1504599,0.88032713 -0.0029,-0.0450914"
           id="path191"
           sodipodi:nodetypes="cc" /><path
           style="fill:none;fill-opacity:0.69589;stroke:#ccabe2;stroke-width:0.00322202;stroke-dasharray:none"
           d="m 1.1709705,0.88000164 -0.00267,-0.0469432"
           id="path192"
           sodipodi:nodetypes="cc" /><path
           style="fill:none;fill-opacity:0.69589;stroke:#ccabe2;stroke-width:0.00316667;stroke-dasharray:none"
           d="m 1.1906471,0.87728869 -0.00328,-0.0454499"
           id="path193"
           sodipodi:nodetypes="cc" /><path
           style="fill:none;fill-opacity:0.69589;stroke:#ccabe2;stroke-width:0.00323288;stroke-dasharray:none"
           d="m 1.0866743,0.88230108 -0.078725,-0.004281 0.00366,-0.0482475 0.076505,0.005982 z"
           id="path198"
           sodipodi:nodetypes="ccccc" /><path
           style="fill:none;fill-opacity:0.69589;stroke:#ccabe2;stroke-width:0.00316667;stroke-dasharray:none"
           d="m 1.0655281,0.88025668 0.0029,-0.0450914"
           id="path202"
           sodipodi:nodetypes="cc" /><path
           style="fill:none;fill-opacity:0.69589;stroke:#ccabe2;stroke-width:0.00322202;stroke-dasharray:none"
           d="m 1.0450175,0.87993119 0.00266,-0.0469432"
           id="path203"
           sodipodi:nodetypes="cc" /><path
           style="fill:none;fill-opacity:0.69589;stroke:#ccabe2;stroke-width:0.00318976;stroke-dasharray:none"
           d="m 1.0253428,0.87793283 0.00328,-0.0461663"
           id="path204"
           sodipodi:nodetypes="cc" /></g><g
         inkscape:groupmode="layer"
         id="layer18"
         inkscape:label="subroom walls north"><path
           style="opacity:1;fill:none;fill-opacity:1;stroke:#ccabe2;stroke-width:0.00316667;stroke-dasharray:none;stroke-opacity:1"
           d="m 0.67095111,0.56893751 0.0141126,0.0415312"
           id="path86" /><path
           style="opacity:1;fill:none;fill-opacity:1;stroke:#ccabe2;stroke-width:0.00316667;stroke-dasharray:none;stroke-opacity:1"
           d="m 0.69151512,0.56208285 0.0129029,0.0403216"
           id="path87" /><path
           style="opacity:1;fill:none;fill-opacity:1;stroke:#ccabe2;stroke-width:0.00316667;stroke-dasharray:none;stroke-opacity:1"
           d="m 0.71127269,0.55522818 0.014919,0.0403216"
           id="path88" /><path
           style="opacity:1;fill:none;fill-opacity:1;stroke:#ccabe2;stroke-width:0.00316667;stroke-dasharray:none;stroke-opacity:1"
           d="m 0.73143348,0.54958315 0.0137093,0.0395151"
           id="path89" /><path
           style="opacity:1;fill:none;fill-opacity:1;stroke:#ccabe2;stroke-width:0.00316667;stroke-dasharray:none;stroke-opacity:1"
           d="m 0.75401357,0.54192206 0.0141125,0.0407248"
           id="path90" /><path
           style="opacity:1;fill:none;fill-opacity:1;stroke:#ccabe2;stroke-width:0.00316667;stroke-dasharray:none;stroke-opacity:1"
           d="m 0.77619044,0.53788989 0.0108868,0.0383055"
           id="path92" /><path
           style="opacity:1;fill:none;fill-opacity:1;stroke:#ccabe2;stroke-width:0.00316667;stroke-dasharray:none;stroke-opacity:1"
           d="m 0.79877053,0.53022879 0.0100804,0.0419344"
           id="path96" /><path
           style="opacity:1;fill:none;fill-opacity:1;stroke:#ccabe2;stroke-width:0.00316667;stroke-dasharray:none;stroke-opacity:1"
           d="m 0.8185281,0.52579342 0.0116933,0.0415312"
           id="path97" /><path
           style="opacity:1;fill:none;fill-opacity:1;stroke:#ccabe2;stroke-width:0.00316667;stroke-dasharray:none;stroke-opacity:1"
           d="m 0.83989851,0.52095483 0.009677,0.0395152"
           id="path98" /><path
           style="opacity:1;fill:none;fill-opacity:1;stroke:#ccabe2;stroke-width:0.00316667;stroke-dasharray:none;stroke-opacity:1"
           d="m 0.86328509,0.51450338 0.008468,0.0419344"
           id="path99" /><path
           style="opacity:1;fill:none;fill-opacity:1;stroke:#ccabe2;stroke-width:0.00316667;stroke-dasharray:none;stroke-opacity:1"
           d="m 0.88626833,0.51087444 0.007409,0.0409768"
           id="path100"
           sodipodi:nodetypes="cc" /><path
           style="opacity:1;fill:none;fill-opacity:1;stroke:#ccabe2;stroke-width:0.00316667;stroke-dasharray:none;stroke-opacity:1"
           d="m 0.90683237,0.50805192 0.006451,0.0399184"
           id="path101" /><path
           style="opacity:1;fill:none;fill-opacity:1;stroke:#ccabe2;stroke-width:0.00316667;stroke-dasharray:none;stroke-opacity:1"
           d="m 0.93263814,0.50522942 0.003629,0.0399184"
           id="path102" /><path
           style="opacity:1;fill:none;fill-opacity:1;stroke:#ccabe2;stroke-width:0.00316667;stroke-dasharray:none;stroke-opacity:1"
           d="m 0.95118607,0.50321333 0.005645,0.0415312"
           id="path103" /><path
           style="opacity:1;fill:none;fill-opacity:1;stroke:#ccabe2;stroke-width:0.00316667;stroke-dasharray:none;stroke-opacity:1"
           d="m 0.97336296,0.49958439 0.004839,0.0423377"
           id="path104" /><path
           style="opacity:1;fill:none;fill-opacity:1;stroke:#ccabe2;stroke-width:0.00316667;stroke-dasharray:none;stroke-opacity:1"
           d="m 0.99715271,0.49837475 0.003629,0.0419344"
           id="path105" /><path
           style="opacity:1;fill:none;fill-opacity:1;stroke:#ccabe2;stroke-width:0.00316667;stroke-dasharray:none;stroke-opacity:1"
           d="m 1.0193296,0.49676188 0.00363,0.0423377"
           id="path106" /><path
           style="opacity:1;fill:none;fill-opacity:1;stroke:#ccabe2;stroke-width:0.00316667;stroke-dasharray:none;stroke-opacity:1"
           d="m 1.0398936,0.4971651 0.00323,0.0391119"
           id="path107" /><path
           style="opacity:1;fill:none;fill-opacity:1;stroke:#ccabe2;stroke-width:0.0032516;stroke-dasharray:none;stroke-opacity:1"
           d="m 1.0628803,0.49554574 0.0016,0.040133"
           id="path108" /><path
           style="opacity:1;fill:none;fill-opacity:1;stroke:#ccabe2;stroke-width:0.00316667;stroke-dasharray:none;stroke-opacity:1"
           d="m 0.73324795,0.63204078 0.014919,0.045765"
           id="path109" /><path
           style="fill:none;fill-opacity:1;stroke:#ccabe2;stroke-width:0.00316667;stroke-dasharray:none;stroke-opacity:1"
           d="M 0.69914803,0.64308946 0.71406703,0.68885446"
           id="path109-8" /><path
           style="opacity:1;fill:none;fill-opacity:1;stroke:#ccabe2;stroke-width:0.00316667;stroke-dasharray:none;stroke-opacity:1"
           d="m 0.79796409,0.61127517 0.0118949,0.0475795"
           id="path110" /><path
           style="opacity:1;fill:none;fill-opacity:1;stroke:#ccabe2;stroke-width:0.00316667;stroke-dasharray:none;stroke-opacity:1"
           d="m 0.83828566,0.60099317 0.0102821,0.0493939"
           id="path111" /><path
           style="opacity:1;fill:none;fill-opacity:1;stroke:#ccabe2;stroke-width:0.00321676;stroke-dasharray:none;stroke-opacity:1"
           d="m 0.87942193,0.59272455 0.008047,0.0491977"
           id="path112" /><path
           style="opacity:1;fill:none;fill-opacity:1;stroke:#ccabe2;stroke-width:0.00316667;stroke-dasharray:none;stroke-opacity:1"
           d="m 0.91993688,0.58587258 0.007661,0.0489908"
           id="path113"
           sodipodi:nodetypes="cc" /><path
           style="opacity:1;fill:none;fill-opacity:1;stroke:#ccabe2;stroke-width:0.00316667;stroke-dasharray:none;stroke-opacity:1"
           d="M 0.66933824,0.8818533 0.68345084,0.8403221"
           id="path114" /><path
           style="opacity:1;fill:none;fill-opacity:1;stroke:#ccabe2;stroke-width:0.00316667;stroke-dasharray:none;stroke-opacity:1"
           d="m 0.70965982,0.89556263 0.014919,-0.0403216"
           id="path116" /><path
           style="opacity:1;fill:none;fill-opacity:1;stroke:#ccabe2;stroke-width:0.00316667;stroke-dasharray:none;stroke-opacity:1"
           d="m 0.72982061,0.90120766 0.0137093,-0.0395151"
           id="path117" /><path
           style="opacity:1;fill:none;fill-opacity:1;stroke:#ccabe2;stroke-width:0.00316667;stroke-dasharray:none;stroke-opacity:1"
           d="M 0.7524007,0.90886875 0.7665132,0.86814395"
           id="path118" /><path
           style="opacity:1;fill:none;fill-opacity:1;stroke:#ccabe2;stroke-width:0.00316667;stroke-dasharray:none;stroke-opacity:1"
           d="m 0.77457757,0.91290092 0.0108868,-0.0383055"
           id="path119" /><path
           style="opacity:1;fill:none;fill-opacity:1;stroke:#ccabe2;stroke-width:0.00316667;stroke-dasharray:none;stroke-opacity:1"
           d="m 0.79715766,0.92056202 0.0100804,-0.0419344"
           id="path120" /><path
           style="opacity:1;fill:none;fill-opacity:1;stroke:#ccabe2;stroke-width:0.00316667;stroke-dasharray:none;stroke-opacity:1"
           d="m 0.81691523,0.92499739 0.0116933,-0.0415312"
           id="path121" /><path
           style="opacity:1;fill:none;fill-opacity:1;stroke:#ccabe2;stroke-width:0.00316667;stroke-dasharray:none;stroke-opacity:1"
           d="m 0.83828564,0.92983598 0.009677,-0.0395152"
           id="path122" /><path
           style="opacity:1;fill:none;fill-opacity:1;stroke:#ccabe2;stroke-width:0.00316667;stroke-dasharray:none;stroke-opacity:1"
           d="m 0.86167222,0.93628743 0.008468,-0.0419344"
           id="path123" /><path
           style="opacity:1;fill:none;fill-opacity:1;stroke:#ccabe2;stroke-width:0.00316667;stroke-dasharray:none;stroke-opacity:1"
           d="m 0.88465546,0.93991637 0.006855,-0.0395151"
           id="path124" /><path
           style="opacity:1;fill:none;fill-opacity:1;stroke:#ccabe2;stroke-width:0.00316667;stroke-dasharray:none;stroke-opacity:1"
           d="m 0.9052195,0.94273889 0.006451,-0.0399184"
           id="path125" /><path
           style="opacity:1;fill:none;fill-opacity:1;stroke:#ccabe2;stroke-width:0.00316667;stroke-dasharray:none;stroke-opacity:1"
           d="m 0.93102527,0.94556139 0.003629,-0.0399184"
           id="path126" /><path
           style="opacity:1;fill:none;fill-opacity:1;stroke:#ccabe2;stroke-width:0.00316667;stroke-dasharray:none;stroke-opacity:1"
           d="m 0.9495732,0.94757748 0.005645,-0.0415312"
           id="path127" /><path
           style="opacity:1;fill:none;fill-opacity:1;stroke:#ccabe2;stroke-width:0.00316667;stroke-dasharray:none;stroke-opacity:1"
           d="m 0.97175009,0.95120642 0.004839,-0.0423377"
           id="path128" /><path
           style="opacity:1;fill:none;fill-opacity:1;stroke:#ccabe2;stroke-width:0.00316667;stroke-dasharray:none;stroke-opacity:1"
           d="m 0.99553984,0.95241606 0.003629,-0.0419344"
           id="path129" /><path
           style="opacity:1;fill:none;fill-opacity:1;stroke:#ccabe2;stroke-width:0.00316667;stroke-dasharray:none;stroke-opacity:1"
           d="m 1.0177166,0.95402893 0.00363,-0.0423377"
           id="path130" /><path
           style="opacity:1;fill:none;fill-opacity:1;stroke:#ccabe2;stroke-width:0.00316667;stroke-dasharray:none;stroke-opacity:1"
           d="m 1.0382806,0.95362571 0.00323,-0.0391119"
           id="path131" /><path
           style="opacity:1;fill:none;fill-opacity:1;stroke:#ccabe2;stroke-width:0.00324399;stroke-dasharray:none;stroke-opacity:1"
           d="m 1.061267,0.95524447 0.0016,-0.0399302"
           id="path132" /><path
           style="opacity:1;fill:none;fill-opacity:1;stroke:#ccabe2;stroke-width:0.00316667;stroke-dasharray:none;stroke-opacity:1"
           d="m 0.73163508,0.81875003 0.014919,-0.045765"
           id="path133" /><path
           style="fill:none;fill-opacity:1;stroke:#ccabe2;stroke-width:0.00316667;stroke-dasharray:none;stroke-opacity:1"
           d="M 0.70274601,0.80954834 0.71766501,0.76378334"
           id="path133-6" /><path
           style="opacity:1;fill:none;fill-opacity:1;stroke:#ccabe2;stroke-width:0.00316667;stroke-dasharray:none;stroke-opacity:1"
           d="m 0.79635122,0.83951564 0.0118949,-0.0475795"
           id="path134" /><path
           style="opacity:1;fill:none;fill-opacity:1;stroke:#ccabe2;stroke-width:0.00316667;stroke-dasharray:none;stroke-opacity:1"
           d="m 0.83667279,0.84979764 0.0102821,-0.0493939"
           id="path135" /><path
           style="opacity:1;fill:none;fill-opacity:1;stroke:#ccabe2;stroke-width:0.00316667;stroke-dasharray:none;stroke-opacity:1"
           d="m 0.87780078,0.8564507 0.008064,-0.0475795"
           id="path136" /><path
           style="opacity:1;fill:none;fill-opacity:1;stroke:#ccabe2;stroke-width:0.00316667;stroke-dasharray:none;stroke-opacity:1"
           d="m 0.91832401,0.86330537 0.007661,-0.0473779"
           id="path137" /></g></g><path
       style="opacity:1;fill:none;fill-opacity:1;stroke:#873fb0;stroke-width:0.00316667;stroke-dasharray:none;stroke-opacity:1"
       d="m 0.48397684,0.65057711 0.0129138,0.0269954 c 0,0 0.008461,0.0145696 0.009041,0.0336596 4.2768e-4,0.0168219 -5.1266e-4,0.0296131 -5.1266e-4,0.0296131 0,0 -2.0877e-4,0.0155851 -0.007764,0.030126 -0.007556,0.0145409 -0.0146979,0.0296638 -0.0146979,0.0296638 l 0.12125512,0.0585741 0.0676663,0.0265058 c 0,0 0.10435269,0.0322181 0.11034014,0.0337863 0.005987,0.001568 0.10996134,0.0238562 0.11851484,0.0252818 0.008553,0.001426 0.0663588,0.007721 0.11467612,0.0105087 0.049246,0.002842 0.092628,0.002636 0.092628,0.002636 0,0 0.073737,6.9455e-4 0.1425439,-0.006773 0.034073,-0.003698 0.095455,-0.0112275 0.1432121,-0.0232025 0.047757,-0.0119748 0.1270195,-0.034823 0.1270195,-0.034823 L 1.569425,0.87559372 1.611612,0.8583138 1.7315626,0.8006284 c 0,0 -0.00933,-0.0204597 -0.014877,-0.030195 -0.00364,-0.006812 -0.00746,-0.0284526 -0.00746,-0.0284526 L 1.7089399,0.7099655 c 0,0 4.378e-4,-0.0152436 0.00663,-0.0280494 0.00652,-0.0134905 0.015324,-0.031602 0.015324,-0.031602 L 1.6096059,0.5920632 1.5674489,0.5747994 c 0,0 -0.1078146,-0.0365239 -0.1651028,-0.0500868 -0.056004,-0.0132589 -0.1133783,-0.022099 -0.1650679,-0.0256588 -0.049068,-0.005374 -0.1082165,-0.005729 -0.1082165,-0.005729 l -0.044336,-2.1555e-4 c 0,0 -0.044061,1.4812e-4 -0.10592079,0.005275 -0.0610537,0.005932 -0.11492857,0.0143494 -0.14443814,0.0213348 -0.027086,0.005275 -0.066711,0.0159038 -0.10793689,0.0280147 -0.0399694,0.0117418 -0.0795252,0.0274101 -0.0795252,0.0274101 l -0.0433133,0.017614 z"
       id="path72"
       sodipodi:nodetypes="ccccccccscscsscccccccscccscccccsccc"
       inkscape:label="Outer border" /><path
       style="fill:none;stroke:#ccabe2;stroke-width:0.00316667"
       d="m 0.55069199,0.70955902 0.087397,-0.0275195"
       id="path205" /><path
       style="fill:none;stroke:#ccabe2;stroke-width:0.00316667"
       d="m 0.56319168,0.70794616 0.0711676,-0.006451"
       id="path206"
       sodipodi:nodetypes="cc" /><path
       style="fill:none;stroke:#ccabe2;stroke-width:0.00316667"
       d="m 0.56006676,0.70875258 0.008669,-0.002923"
       id="path207" /></g></svg>
