<?xml version="1.0" encoding="UTF-8" standalone="no"?>
<!-- Created with Inkscape (http://www.inkscape.org/) -->

<svg
   width="164.38cm"
   height="123.29cm"
   viewBox="0 0 1.6438 1.2329"
   version="1.1"
   id="svg1"
   xml:space="preserve"
   inkscape:version="1.4.3 (0d15f75, 2025-12-25)"
   sodipodi:docname="BARCF1.svg"
   xmlns:inkscape="http://www.inkscape.org/namespaces/inkscape"
   xmlns:sodipodi="http://sodipodi.sourceforge.net/DTD/sodipodi-0.dtd"
   xmlns="http://www.w3.org/2000/svg"
   xmlns:svg="http://www.w3.org/2000/svg"
   xmlns:rdf="http://www.w3.org/1999/02/22-rdf-syntax-ns#"
   xmlns:cc="http://creativecommons.org/ns#"
   xmlns:dc="http://purl.org/dc/elements/1.1/"><title
     id="title1">Base file for floor 1 of the BARC</title><sodipodi:namedview
     id="namedview1"
     pagecolor="#ffffff"
     bordercolor="#000000"
     borderopacity="0.25"
     inkscape:showpageshadow="2"
     inkscape:pageopacity="0.0"
     inkscape:pagecheckerboard="false"
     inkscape:deskcolor="#d1d1d1"
     inkscape:document-units="cm"
     showgrid="true"
     inkscape:zoom="0.32"
     inkscape:cx="2637.5"
     inkscape:cy="2048.4375"
     inkscape:window-width="3840"
     inkscape:window-height="2120"
     inkscape:window-x="-12"
     inkscape:window-y="-12"
     inkscape:window-maximized="1"
     inkscape:current-layer="layer2"><inkscape:grid
       id="grid1"
       units="cm"
       originx="-0.12858753"
       originy="-0.1124479"
       spacingx="0.0099999995"
       spacingy="0.0099999995"
       empcolor="#0099e5"
       empopacity="0.30196078"
       color="#0099e5"
       opacity="0.14901961"
       empspacing="5"
       enabled="true"
       visible="true" /></sodipodi:namedview><defs
     id="defs1" /><g
     inkscape:groupmode="layer"
     id="layer2"
     inkscape:label="Walls"><path
       style="display:none;opacity:1;fill:#343434;fill-opacity:0.50173;stroke:#ffffff;stroke-width:0.00026"
       d="M 1.3644319,0.18197297 H 0.37541974 v 0.24993877 h 0.0665042 v -0.005189 h 0.13037741 v 0.005189 h 0.02419 V 0.60511493 L 0.29466467,0.80126572 0.38565115,0.94172839 0.25724693,1.0254067 0.36401902,1.1883054 0.63434753,1.0132021 1.2532749,0.61161918 l 0.00848,0.0121315 0.00994,-0.002704 0.055323,-0.0426065 0.089086,-0.0703044 -0.075055,-0.11561496 -0.018855,0.008258 -0.027259,-0.042168 -0.00205,-0.001462 2.192e-4,-0.0933251 0.070597,-0.0454567 5.847e-4,-3.6541e-4 z"
       id="path2"
       inkscape:label="main background" /><g
       inkscape:groupmode="layer"
       id="layer6"
       inkscape:label="mainwalls"><path
         style="opacity:1;fill:none;fill-opacity:0.50173;stroke:#ccabe2;stroke-width:0.002;stroke-dasharray:none;stroke-opacity:1"
         d="M 1.2931043,0.26382426 H 1.2678912 V 0.18211913"
         id="path3" /><path
         style="opacity:1;fill:none;fill-opacity:0.50173;stroke:#ccabe2;stroke-width:0.002;stroke-dasharray:none;stroke-opacity:1"
         d="m 1.2428242,0.18197297 -1.827e-4,0.0586113 -0.025213,-3.654e-5 0.00849,0.11971446 -0.0068,0.0308508 H 0.67008832 v -0.0370779 h -0.007028 V 0.24065715 L 1.217619,0.24054753"
         id="path4"
         sodipodi:nodetypes="cccccccccc" /><path
         style="opacity:1;fill:none;fill-opacity:0.50173;stroke:#ccabe2;stroke-width:0.002;stroke-dasharray:none;stroke-opacity:1"
         d="M 1.2427149,0.22164023 H 0.63267457 v 0.0191203 h 0.005323 v 0.0255798 h -0.0309025 v -0.0830957 h 0.0253731 v 0.0382406"
         id="path5" /><path
         style="opacity:1;fill:none;fill-opacity:0.50173;stroke:#ccabe2;stroke-width:0.002;stroke-dasharray:none;stroke-opacity:1"
         d="m 0.50002118,0.18303793 v 0.089917 h -0.0359668 v 0.10852052 h 0.0482658 v 0.0448551"
         id="path6" /><path
         style="opacity:1;fill:none;fill-opacity:0.50173;stroke:#ccabe2;stroke-width:0.002;stroke-dasharray:none;stroke-opacity:1"
         d="m 0.60709476,0.26613364 v 0.0411344 H 0.49991781 v 0.005374 h -0.002791 v 0.005891 h 0.003101 v 0.0361735 h 0.16309083"
         id="path7" /><path
         style="opacity:1;fill:none;fill-opacity:0.50173;stroke:#ccabe2;stroke-width:0.002;stroke-dasharray:none;stroke-opacity:1"
         d="m 0.52647952,0.42674398 v -0.002791 h 0.009405 c 0,0 -0.003721,-0.005374 0,-0.005374 0.003721,0 0.0380339,0 0.0380339,0 v 0.0107487 h 0.0343132 v 0.18603516 l -0.003204,0.00248 -0.008268,-0.0121957"
         id="path8" /><path
         style="opacity:1;fill:none;fill-opacity:0.50173;stroke:#ccabe2;stroke-width:0.002;stroke-dasharray:none;stroke-opacity:1"
         d="m 0.58508057,0.61298586 0.001447,0.002274 -3.1007e-4,0.001654 -0.0271818,0.0173633 0.0909505,0.14190351 -0.0232544,0.0147794 -0.0110588,0.006305 -0.002791,-0.003824 -0.2269629,0.1469678"
         id="path9" /><path
         style="opacity:1;fill:none;fill-opacity:0.50173;stroke:#ccabe2;stroke-width:0.002;stroke-dasharray:none;stroke-opacity:1"
         d="m 0.37322729,0.95049816 c 0.0019,0.004677 0.0278441,0.0431912 0.0278441,0.0431912 l -0.009428,0.006285 0.0114738,0.0176127 0.009135,-0.00621 0.0347868,0.053569 -0.009281,0.00607 0.0118267,0.017658 0.1640074,-0.10601341 0.0198782,0.030402"
         id="path10" /><path
         style="opacity:1;fill:none;fill-opacity:0.50173;stroke:#ccabe2;stroke-width:0.002;stroke-dasharray:none;stroke-opacity:1"
         d="m 0.65502961,0.99946277 -0.0920096,-0.14163196 0.0234042,-0.0155049 0.0129191,0.019637 0.0229443,-0.0152962 -0.0125057,-0.019637 0.52802419,-0.34271848 0.1844577,-0.0835322"
         id="path11" /><path
         style="fill:#ccabe2;fill-opacity:1;stroke:#ccabe2;stroke-width:0.002;stroke-dasharray:none;stroke-opacity:1"
         d="M 1.3190661,0.39586882 1.1921235,0.45952287 1.3221355,0.4008384 Z"
         id="path12-7"
         sodipodi:nodetypes="cccc" /><path
         style="opacity:1;fill:none;fill-opacity:1;stroke:#ccabe2;stroke-width:0.002;stroke-dasharray:none;stroke-opacity:1"
         d="M 0.62477387,0.95276368 1.171789,0.59714904 1.1115698,0.50185075"
         id="path12" /><path
         style="opacity:1;fill:none;fill-opacity:1;stroke:#ccabe2;stroke-width:0.002;stroke-dasharray:none;stroke-opacity:1"
         d="m 1.1363648,0.485035 0.092501,0.14231692"
         id="path13" /><path
         style="opacity:1;fill:none;fill-opacity:1;stroke:#ccabe2;stroke-width:0.002;stroke-dasharray:none;stroke-opacity:1"
         d="M 1.2537736,0.61153891 1.3956771,0.51593751 1.3214698,0.40121584"
         id="path14" /><path
         style="opacity:1;fill:none;fill-opacity:1;stroke:#ccabe2;stroke-width:0.002;stroke-dasharray:none;stroke-opacity:1"
         d="M 1.2039575,0.64388838 1.1826669,0.61308921 0.63551677,0.96841638"
         id="path15" /><path
         style="opacity:1;fill:none;fill-opacity:1;stroke:#ccabe2;stroke-width:0.002;stroke-dasharray:none;stroke-opacity:1"
         d="m 0.51883139,0.65660076 0.0903304,0.13890625"
         id="path16" /></g><g
       inkscape:groupmode="layer"
       id="layer7"
       inkscape:label="subwalls"><path
         style="opacity:1;fill:none;fill-opacity:1;stroke:#ccabe2;stroke-width:0.002;stroke-dasharray:none;stroke-opacity:1"
         d="M 0.39200924,0.18314227 V 0.4297193 h 0.0477953 v -0.005262 h 0.006723 v 0.0019"
         id="path17" /><path
         style="opacity:1;fill:none;fill-opacity:1;stroke:#ccabe2;stroke-width:0.002;stroke-dasharray:none;stroke-opacity:1"
         d="M 0.46406762,0.42621138 V 0.38097392"
         id="path18" /><path
         style="opacity:1;fill:none;fill-opacity:1;stroke:#ccabe2;stroke-width:0.002;stroke-dasharray:none;stroke-opacity:1"
         d="m 0.39222848,0.33939055 h 0.0717661"
         id="path19" /><path
         style="opacity:1;fill:none;fill-opacity:1;stroke:#ccabe2;stroke-width:0.002;stroke-dasharray:none;stroke-opacity:1"
         d="m 0.39222848,0.30160741 h 0.0717661"
         id="path20" /><path
         style="opacity:1;fill:none;fill-opacity:1;stroke:#ccabe2;stroke-width:0.002;stroke-dasharray:none;stroke-opacity:1"
         d="m 0.46406762,0.18350768 v 0.0900364"
         id="path21" /><path
         style="opacity:1;fill:none;fill-opacity:1;stroke:#ccabe2;stroke-width:0.002;stroke-dasharray:none;stroke-opacity:1"
         d="M 0.5003829,0.18577678 H 0.60683636"
         id="path22" /><path
         style="opacity:1;fill:none;fill-opacity:1;stroke:#ccabe2;stroke-width:0.002;stroke-dasharray:none;stroke-opacity:1"
         d="m 0.60130699,0.18582846 v 0.005994 h 0.005323"
         id="path23" /><path
         style="opacity:1;fill:none;fill-opacity:1;stroke:#ccabe2;stroke-width:0.002;stroke-dasharray:none;stroke-opacity:1"
         d="M 0.6799504,0.1834346 V 0.221437"
         id="path24" /><path
         style="opacity:1;fill:none;fill-opacity:1;stroke:#ccabe2;stroke-width:0.002;stroke-dasharray:none;stroke-opacity:1"
         d="m 0.71583343,0.18358076 v 0.0378562"
         id="path25" /><path
         style="opacity:1;fill:none;fill-opacity:1;stroke:#ccabe2;stroke-width:0.002;stroke-dasharray:none;stroke-opacity:1"
         d="m 0.75178954,0.18350768 v 0.0382947"
         id="path26" /><path
         style="opacity:1;fill:none;fill-opacity:1;stroke:#ccabe2;stroke-width:0.002;stroke-dasharray:none;stroke-opacity:1"
         d="M 0.80572369,0.1834346 V 0.2215101"
         id="path27" /><path
         style="opacity:1;fill:none;fill-opacity:1;stroke:#ccabe2;stroke-width:0.002;stroke-dasharray:none;stroke-opacity:1"
         d="m 0.84153364,0.18328844 v 0.0383678"
         id="path28" /><path
         style="opacity:1;fill:none;fill-opacity:1;stroke:#ccabe2;stroke-width:0.002;stroke-dasharray:none;stroke-opacity:1"
         d="m 0.89561394,0.18336152 v 0.0383678"
         id="path29" /><path
         style="opacity:1;fill:none;fill-opacity:1;stroke:#ccabe2;stroke-width:0.002;stroke-dasharray:none;stroke-opacity:1"
         d="m 0.92879296,0.18339806 v 0.008039 h 0.005408 v -0.006139 h -0.005445"
         id="path30" /><path
         style="opacity:1;fill:none;fill-opacity:1;stroke:#ccabe2;stroke-width:0.002;stroke-dasharray:none;stroke-opacity:1"
         d="m 0.93153351,0.19151011 v 0.0301096"
         id="path31" /><path
         style="opacity:1;fill:none;fill-opacity:1;stroke:#ccabe2;stroke-width:0.002;stroke-dasharray:none;stroke-opacity:1"
         d="M 0.96763578,0.1836173 V 0.2212908"
         id="path32" /><path
         style="opacity:1;fill:none;fill-opacity:1;stroke:#ccabe2;stroke-width:0.002;stroke-dasharray:none;stroke-opacity:1"
         d="m 1.0034823,0.18383655 v 0.0377466"
         id="path33" /><path
         style="opacity:1;fill:none;fill-opacity:1;stroke:#ccabe2;stroke-width:0.002;stroke-dasharray:none;stroke-opacity:1"
         d="m 1.0366247,0.18372693 v 0.00782 h 0.00581 v -0.006066 h -0.00574"
         id="path34" /><path
         style="opacity:1;fill:none;fill-opacity:1;stroke:#ccabe2;stroke-width:0.002;stroke-dasharray:none;stroke-opacity:1"
         d="m 1.0394384,0.19140049 v 0.0301461"
         id="path35" /><path
         style="opacity:1;fill:none;fill-opacity:1;stroke:#ccabe2;stroke-width:0.002;stroke-dasharray:none;stroke-opacity:1"
         d="m 1.1081715,0.18412887 c 7.31e-5,2.1925e-4 0,0.007235 0,0.007235 h 0.00672 v -0.007564"
         id="path36" /><path
         style="opacity:1;fill:none;fill-opacity:1;stroke:#ccabe2;stroke-width:0.002;stroke-dasharray:none;stroke-opacity:1"
         d="m 1.1148585,0.18493277 h -0.0065"
         id="path37" /><path
         style="opacity:1;fill:none;fill-opacity:1;stroke:#ccabe2;stroke-width:0.002;stroke-dasharray:none;stroke-opacity:1"
         d="m 1.1652482,0.18420196 v 0.037235"
         id="path38" /><path
         style="opacity:1;fill:none;fill-opacity:1;stroke:#ccabe2;stroke-width:0.002;stroke-dasharray:none;stroke-opacity:1"
         d="M 1.2012043,0.1836173 V 0.2216562"
         id="path39" /><path
         style="opacity:1;fill:none;fill-opacity:1;stroke:#ccabe2;stroke-width:0.002;stroke-dasharray:none;stroke-opacity:1"
         d="m 1.2371604,0.18372693 v 0.0378197"
         id="path40" /><path
         style="opacity:1;fill:none;fill-opacity:1;stroke:#ccabe2;stroke-width:0.002;stroke-dasharray:none;stroke-opacity:1"
         d="m 1.2425599,0.24050212 v 0.0290938 h 0.02527 v -0.0100252"
         id="path41" /><path
         style="opacity:1;fill:none;fill-opacity:1;stroke:#ccabe2;stroke-width:0.002;stroke-dasharray:none;stroke-opacity:1"
         d="m 1.2679846,0.26944093 v 0.028267 l -0.0154,0.0101803 -0.012557,-0.0240295 v -0.0428915"
         id="path42" /><path
         style="opacity:1;fill:none;fill-opacity:1;stroke:#ccabe2;stroke-width:0.002;stroke-dasharray:none;stroke-opacity:1"
         d="m 1.2412679,0.24070883 v 0.0287321"
         id="path43" /><path
         style="opacity:1;fill:none;fill-opacity:1;stroke:#ccabe2;stroke-width:0.002;stroke-dasharray:none;stroke-opacity:1"
         d="m 1.2410096,0.26830404 3.1e-4,0.001602"
         id="path44" /><path
         style="opacity:1;fill:none;fill-opacity:1;stroke:#ccabe2;stroke-width:0.002;stroke-dasharray:none;stroke-opacity:1"
         d="m 1.2416814,0.26954428 -6.718e-4,9.3017e-4"
         id="path45" /><path
         style="opacity:1;fill:none;fill-opacity:1;stroke:#ccabe2;stroke-width:0.002;stroke-dasharray:none;stroke-opacity:1"
         d="m 0.63778237,0.26638211 v 0.0879171"
         id="path46" /><path
         style="opacity:1;fill:none;fill-opacity:1;stroke:#ccabe2;stroke-width:0.002;stroke-dasharray:none;stroke-opacity:1"
         d="M 0.60701506,0.3071616 V 0.3545915"
         id="path47" /><path
         style="opacity:1;fill:none;fill-opacity:1;stroke:#ccabe2;stroke-width:0.002;stroke-dasharray:none;stroke-opacity:1"
         d="m 0.60745353,0.31593137 0.0302558,7.311e-5"
         id="path48" /><path
         style="opacity:1;fill:none;fill-opacity:1;stroke:#ccabe2;stroke-width:0.002;stroke-dasharray:none;stroke-opacity:1"
         d="m 0.53612599,0.30730776 v 0.0474299"
         id="path49" /><path
         style="opacity:1;fill:none;fill-opacity:1;stroke:#ccabe2;stroke-width:0.002;stroke-dasharray:none;stroke-opacity:1"
         d="m 0.57215518,0.30752702 v 0.0472107"
         id="path50" /><path
         style="opacity:1;fill:none;fill-opacity:1;stroke:#ccabe2;stroke-width:0.002;stroke-dasharray:none;stroke-opacity:1"
         d="m 0.59035248,0.30745394 v 0.0467722"
         id="path51" /><path
         style="opacity:1;fill:none;fill-opacity:1;stroke:#ccabe2;stroke-width:0.002;stroke-dasharray:none;stroke-opacity:1"
         d="M 0.59846452,0.42906157 V 0.3811201 h 0.039464 v 0.048453 h -0.0302557"
         id="path52" /><path
         style="opacity:1;fill:none;fill-opacity:1;stroke:#ccabe2;stroke-width:0.002;stroke-dasharray:none;stroke-opacity:1"
         d="M 0.7516854,0.24065715 V 0.39072551"
         id="path53" /><path
         style="opacity:1;fill:none;fill-opacity:1;stroke:#ccabe2;stroke-width:0.002;stroke-dasharray:none;stroke-opacity:1"
         d="m 0.89555259,0.39072551 v -0.0715719 h 0.0359668 v 0.0724504"
         id="path54" /><path
         style="opacity:1;fill:none;fill-opacity:1;stroke:#ccabe2;stroke-width:0.002;stroke-dasharray:none;stroke-opacity:1"
         d="M 0.93157108,0.319257 V 0.2405538"
         id="path55" /><path
         style="opacity:1;fill:none;fill-opacity:1;stroke:#ccabe2;stroke-width:0.002;stroke-dasharray:none;stroke-opacity:1"
         d="m 0.9578794,0.24087667 v 0.0368331"
         id="path56" /><path
         style="opacity:1;fill:none;fill-opacity:1;stroke:#ccabe2;stroke-width:0.002;stroke-dasharray:none;stroke-opacity:1"
         d="m 0.93164313,0.27763666 h 0.0692813 v -0.03676"
         id="path57" /><path
         style="opacity:1;fill:none;fill-opacity:1;stroke:#ccabe2;stroke-width:0.002;stroke-dasharray:none;stroke-opacity:1"
         d="M 1.0065517,0.24058434 V 0.39105918"
         id="path58" /><path
         style="opacity:1;fill:none;fill-opacity:1;stroke:#ccabe2;stroke-width:0.002;stroke-dasharray:none;stroke-opacity:1"
         d="m 0.95144823,0.39135152 v -0.0238246 h 0.0299634 v 0.0238246"
         id="path59" /><path
         style="opacity:1;fill:none;fill-opacity:1;stroke:#ccabe2;stroke-width:0.002;stroke-dasharray:none;stroke-opacity:1"
         d="M 0.96336051,0.27800208 V 0.3676 h 0.006577 V 0.2778559 Z"
         id="path60" /><path
         style="opacity:1;fill:none;fill-opacity:1;stroke:#ccabe2;stroke-width:0.002;stroke-dasharray:none;stroke-opacity:1"
         d="M 1.0011436,0.27785593 V 0.3909861"
         id="path61" /><path
         style="opacity:1;fill:none;fill-opacity:1;stroke:#ccabe2;stroke-width:0.002;stroke-dasharray:none;stroke-opacity:1"
         d="M 1.0576099,0.3909839 V 0.28732097 h -0.051056"
         id="path62" /><path
         style="opacity:1;fill:none;fill-opacity:1;stroke:#ccabe2;stroke-width:0.002;stroke-dasharray:none;stroke-opacity:1"
         d="M 1.1652002,0.3909839 V 0.28732097 H 1.0569898"
         id="path63" /><path
         style="opacity:1;fill:none;fill-opacity:1;stroke:#ccabe2;stroke-width:0.002;stroke-dasharray:none;stroke-opacity:1"
         d="M 1.2143962,0.24070883 V 0.39088056"
         id="path64" /><path
         style="opacity:1;fill:none;fill-opacity:1;stroke:#ccabe2;stroke-width:0.002;stroke-dasharray:none;stroke-opacity:1"
         d="m 1.1650655,0.28739304 h 0.048709"
         id="path65" /><path
         style="opacity:1;fill:none;fill-opacity:1;stroke:#ccabe2;stroke-width:0.002;stroke-dasharray:none;stroke-opacity:1"
         d="m 1.0789755,0.24087667 v 0.0454567"
         id="path66" /><path
         style="opacity:1;fill:none;fill-opacity:1;stroke:#ccabe2;stroke-width:0.002;stroke-dasharray:none;stroke-opacity:1"
         d="m 0.60709476,0.70972415 -0.0367936,0.0244946"
         id="path67" /><path
         style="opacity:1;fill:none;fill-opacity:1;stroke:#ccabe2;stroke-width:0.002;stroke-dasharray:none;stroke-opacity:1"
         d="m 0.44069663,0.70714033 0.090227,0.13890625"
         id="path68" /><path
         style="opacity:1;fill:none;fill-opacity:1;stroke:#ccabe2;stroke-width:0.002;stroke-dasharray:none;stroke-opacity:1"
         d="m 0.51087323,0.81514407 0.0304891,-0.0199471 0.0207739,0.0310059"
         id="path69" /><path
         style="opacity:1;fill:none;fill-opacity:1;stroke:#ccabe2;stroke-width:0.002;stroke-dasharray:none;stroke-opacity:1"
         d="m 0.44214358,0.70858726 0.0766878,-0.0502295"
         id="path70" /><path
         style="opacity:1;fill:none;fill-opacity:1;stroke:#ccabe2;stroke-width:0.002;stroke-dasharray:none;stroke-opacity:1"
         d="m 0.51655764,0.65887453 -0.0746208,0.0485758"
         id="path71" /><path
         style="opacity:1;fill:none;fill-opacity:1;stroke:#ccabe2;stroke-width:0.002;stroke-dasharray:none;stroke-opacity:1"
         d="m 0.36767311,0.90792818 0.0419122,-0.0269671 0.0198051,0.0310596"
         id="path72" /><path
         style="opacity:1;fill:none;fill-opacity:1;stroke:#ccabe2;stroke-width:0.002;stroke-dasharray:none;stroke-opacity:1"
         d="m 0.38700317,0.94169185 0.003252,0.005847 0.002631,-0.0019 -0.003398,-0.005371 0.0402314,-0.0257247 0.003069,0.005298 0.004348,-0.002704 -0.003837,-0.005737 0.0185627,-0.0115469"
         id="path73" /><path
         style="opacity:1;fill:none;fill-opacity:1;stroke:#ccabe2;stroke-width:0.002;stroke-dasharray:none;stroke-opacity:1"
         d="m 0.38625408,0.94127164 0.002814,-4.385e-4 0.001681,0.005134"
         id="path74" /><path
         style="opacity:1;fill:none;fill-opacity:1;stroke:#ccabe2;stroke-width:0.002;stroke-dasharray:none;stroke-opacity:1"
         d="m 0.38804457,0.94152741 7.308e-4,0.001188"
         id="path75" /><path
         style="opacity:1;fill:none;fill-opacity:1;stroke:#ccabe2;stroke-width:0.002;stroke-dasharray:none;stroke-opacity:1"
         d="m 0.38992642,0.94569306 0.001078,0.001297"
         id="path76" /><path
         style="opacity:1;fill:none;fill-opacity:1;stroke:#ccabe2;stroke-width:0.002;stroke-dasharray:none;stroke-opacity:1"
         d="m 0.41207011,0.92446287 0.0207186,-0.0131729"
         id="path77" /><path
         style="opacity:1;fill:none;fill-opacity:1;stroke:#ccabe2;stroke-width:0.002;stroke-dasharray:none;stroke-opacity:1"
         d="m 0.51118329,0.81498905 -0.0480074,0.0311092 0.0200505,0.0312642"
         id="path78" /><path
         style="opacity:1;fill:none;fill-opacity:1;stroke:#ccabe2;stroke-width:0.002;stroke-dasharray:none;stroke-opacity:1"
         d="m 0.49206299,0.82780481 0.0197921,0.0305924"
         id="path79" /><path
         style="opacity:1;fill:none;fill-opacity:1;stroke:#ccabe2;stroke-width:0.002;stroke-dasharray:none;stroke-opacity:1"
         d="M 0.3095733,1.1045175 0.42043796,1.0327514 0.40859875,1.0147003"
         id="path80" /><path
         style="opacity:1;fill:none;fill-opacity:1;stroke:#ccabe2;stroke-width:0.002;stroke-dasharray:none;stroke-opacity:1"
         d="m 0.31341008,1.1101447 0.11075503,-0.072168 0.0183435,0.029123"
         id="path81" /><path
         style="opacity:1;fill:none;fill-opacity:1;stroke:#ccabe2;stroke-width:0.002;stroke-dasharray:none;stroke-opacity:1"
         d="m 0.45904175,1.0830864 0.0192753,0.030437"
         id="path82" /><path
         style="opacity:1;fill:none;fill-opacity:1;stroke:#ccabe2;stroke-width:0.002;stroke-dasharray:none;stroke-opacity:1"
         d="m 0.48720543,1.0647929 0.0196887,0.030696"
         id="path83" /><path
         style="opacity:1;fill:none;fill-opacity:1;stroke:#ccabe2;stroke-width:0.002;stroke-dasharray:none;stroke-opacity:1"
         d="m 0.51735862,1.0453626 0.0196112,0.030205"
         id="path84" /><path
         style="opacity:1;fill:none;fill-opacity:1;stroke:#ccabe2;stroke-width:0.002;stroke-dasharray:none;stroke-opacity:1"
         d="m 0.54748598,1.0257514 0.0198437,0.030644"
         id="path85" /><path
         style="opacity:1;fill:none;fill-opacity:1;stroke:#ccabe2;stroke-width:0.002;stroke-dasharray:none;stroke-opacity:1"
         d="m 0.57769084,1.0061402 0.0197146,0.03067"
         id="path86" /><path
         style="opacity:1;fill:none;fill-opacity:1;stroke:#ccabe2;stroke-width:0.002;stroke-dasharray:none;stroke-opacity:1"
         d="m 0.60815412,0.98678735 0.0193528,0.0302566"
         id="path87" /><path
         style="opacity:1;fill:none;fill-opacity:1;stroke:#ccabe2;stroke-width:0.002;stroke-dasharray:none;stroke-opacity:1"
         d="m 0.66833133,0.94733239 0.019482,0.0310575"
         id="path88" /><path
         style="opacity:1;fill:none;fill-opacity:1;stroke:#ccabe2;stroke-width:0.002;stroke-dasharray:none;stroke-opacity:1"
         d="m 0.69825197,0.92769534 0.0200505,0.0307992"
         id="path89" /><path
         style="opacity:1;fill:none;fill-opacity:1;stroke:#ccabe2;stroke-width:0.002;stroke-dasharray:none;stroke-opacity:1"
         d="m 0.72884442,0.90836834 0.0192753,0.0305924"
         id="path90" /><path
         style="opacity:1;fill:none;fill-opacity:1;stroke:#ccabe2;stroke-width:0.002;stroke-dasharray:none;stroke-opacity:1"
         d="m 0.76088382,0.88738773 0.0200504,0.0306441"
         id="path91" /><path
         style="opacity:1;fill:none;fill-opacity:1;stroke:#ccabe2;stroke-width:0.002;stroke-dasharray:none;stroke-opacity:1"
         d="m 0.78667035,0.87048953 0.0198954,0.0309542"
         id="path92" /><path
         style="opacity:1;fill:none;fill-opacity:1;stroke:#ccabe2;stroke-width:0.002;stroke-dasharray:none;stroke-opacity:1"
         d="m 0.81912317,0.84945722 0.019792,0.0308508"
         id="path93" /><path
         style="opacity:1;fill:none;fill-opacity:1;stroke:#ccabe2;stroke-width:0.002;stroke-dasharray:none;stroke-opacity:1"
         d="m 0.87927452,0.81018313 0.0199471,0.0311092"
         id="path94" /><path
         style="opacity:1;fill:none;fill-opacity:1;stroke:#ccabe2;stroke-width:0.002;stroke-dasharray:none;stroke-opacity:1"
         d="m 0.90924687,0.79070112 0.0201538,0.0306958"
         id="path95" /><path
         style="opacity:1;fill:none;fill-opacity:1;stroke:#ccabe2;stroke-width:0.002;stroke-dasharray:none;stroke-opacity:1"
         d="m 0.93968427,0.77101239 0.0199988,0.0314709"
         id="path96" /><path
         style="opacity:1;fill:none;fill-opacity:1;stroke:#ccabe2;stroke-width:0.002;stroke-dasharray:none;stroke-opacity:1"
         d="m 0.96981163,0.75163372 0.0198437,0.0307992"
         id="path97" /><path
         style="opacity:1;fill:none;fill-opacity:1;stroke:#ccabe2;stroke-width:0.002;stroke-dasharray:none;stroke-opacity:1"
         d="m 1.0002491,0.73210004 0.01943,0.0304891"
         id="path98" /><path
         style="opacity:1;fill:none;fill-opacity:1;stroke:#ccabe2;stroke-width:0.002;stroke-dasharray:none;stroke-opacity:1"
         d="m 1.0303247,0.71251468 0.019792,0.0309542"
         id="path99" /><path
         style="opacity:1;fill:none;fill-opacity:1;stroke:#ccabe2;stroke-width:0.002;stroke-dasharray:none;stroke-opacity:1"
         d="m 1.0605038,0.69308434 0.019637,0.0303857"
         id="path100" /><path
         style="opacity:1;fill:none;fill-opacity:1;stroke:#ccabe2;stroke-width:0.002;stroke-dasharray:none;stroke-opacity:1"
         d="m 1.0906828,0.67329226 0.019534,0.0307475"
         id="path101" /><path
         style="opacity:1;fill:none;fill-opacity:1;stroke:#ccabe2;stroke-width:0.002;stroke-dasharray:none;stroke-opacity:1"
         d="m 1.1209135,0.65412029 0.019379,0.0303341"
         id="path102" /><path
         style="opacity:1;fill:none;fill-opacity:1;stroke:#ccabe2;stroke-width:0.002;stroke-dasharray:none;stroke-opacity:1"
         d="m 1.1506275,0.63432821 0.020154,0.0306958"
         id="path103" /><path
         style="opacity:1;fill:none;fill-opacity:1;stroke:#ccabe2;stroke-width:0.002;stroke-dasharray:none;stroke-opacity:1"
         d="m 1.1815817,0.61432944 0.020309,0.0297656"
         id="path104" /><path
         style="opacity:1;fill:none;fill-opacity:1;stroke:#ccabe2;stroke-width:0.002;stroke-dasharray:none;stroke-opacity:1"
         d="M 0.56338538,0.85775773 0.40297146,0.96175272 0.46428685,1.0568318 0.60306864,0.96635686 0.54175325,0.87193553"
         id="path105" /><path
         style="opacity:1;fill:none;fill-opacity:1;stroke:#ccabe2;stroke-width:0.002;stroke-dasharray:none;stroke-opacity:1"
         d="m 0.56981655,0.91476131 0.0209013,-0.0135201"
         id="path106" /><path
         style="opacity:1;fill:none;fill-opacity:1;stroke:#ccabe2;stroke-width:0.002;stroke-dasharray:none;stroke-opacity:1"
         d="m 0.60730145,0.85669191 0.0485759,0.0752409 0.005684,-0.003927 -0.0499194,-0.0745174 z"
         id="path107" /><path
         style="opacity:1;fill:none;fill-opacity:1;stroke:#ccabe2;stroke-width:0.002;stroke-dasharray:none;stroke-opacity:1"
         d="m 0.62631838,0.81669437 0.0610816,0.0945679"
         id="path108" /><path
         style="opacity:1;fill:none;fill-opacity:1;stroke:#ccabe2;stroke-width:0.002;stroke-dasharray:none;stroke-opacity:1"
         d="m 0.67117353,0.88604412 0.0622184,-0.0405143 0.0166398,0.0252181"
         id="path109" /><path
         style="opacity:1;fill:none;fill-opacity:1;stroke:#ccabe2;stroke-width:0.002;stroke-dasharray:none;stroke-opacity:1"
         d="m 0.69618491,0.86992108 0.0164331,0.0253215"
         id="path110" /><path
         style="opacity:1;fill:none;fill-opacity:1;stroke:#ccabe2;stroke-width:0.002;stroke-dasharray:none;stroke-opacity:1"
         d="m 0.6883301,0.77597333 0.0451652,0.0691431"
         id="path111" /><path
         style="opacity:1;fill:none;fill-opacity:1;stroke:#ccabe2;stroke-width:0.002;stroke-dasharray:none;stroke-opacity:1"
         d="m 0.77628339,0.85452151 -0.0332796,-0.0518831 0.0321427,-0.0202572 0.0335897,0.0513664"
         id="path112" /><path
         style="opacity:1;fill:none;fill-opacity:1;stroke:#ccabe2;stroke-width:0.002;stroke-dasharray:none;stroke-opacity:1"
         d="m 0.74434736,0.74041994 0.003307,0.004754 0.009922,-0.006511 -0.003721,-0.005788"
         id="path113" /><path
         style="opacity:1;fill:none;fill-opacity:1;stroke:#ccabe2;stroke-width:0.002;stroke-dasharray:none;stroke-opacity:1"
         d="m 0.71468508,0.75943687 0.0289388,0.0438216"
         id="path114" /><path
         style="opacity:1;fill:none;fill-opacity:1;stroke:#ccabe2;stroke-width:0.002;stroke-dasharray:none;stroke-opacity:1"
         d="M 0.70238609,0.79757407 0.7280176,0.78083092"
         id="path115" /><path
         style="opacity:1;fill:none;fill-opacity:1;stroke:#ccabe2;stroke-width:0.002;stroke-dasharray:none;stroke-opacity:1"
         d="m 0.75023847,0.74383058 0.0252181,0.0389641"
         id="path116" /><path
         style="opacity:1;fill:none;fill-opacity:1;stroke:#ccabe2;stroke-width:0.002;stroke-dasharray:none;stroke-opacity:1"
         d="m 0.81372612,0.69551676 0.003179,0.005116 0.009026,-0.005371 0.0577709,0.089196"
         id="path117" /><path
         style="opacity:1;fill:none;fill-opacity:1;stroke:#ccabe2;stroke-width:0.002;stroke-dasharray:none;stroke-opacity:1"
         d="m 0.85286127,0.66942667 0.0616808,0.0944213"
         id="path118" /><path
         style="opacity:1;fill:none;fill-opacity:1;stroke:#ccabe2;stroke-width:0.002;stroke-dasharray:none;stroke-opacity:1"
         d="m 0.85074191,0.73359224 0.0306211,-0.0200974"
         id="path119" /><path
         style="opacity:1;fill:none;fill-opacity:1;stroke:#ccabe2;stroke-width:0.002;stroke-dasharray:none;stroke-opacity:1"
         d="m 0.89985268,0.63946325 0.0614615,0.0942021"
         id="path120" /><path
         style="opacity:1;fill:none;fill-opacity:1;stroke:#ccabe2;stroke-width:0.002;stroke-dasharray:none;stroke-opacity:1"
         d="m 0.95086358,0.60599192 0.003289,0.004896 0.0140317,-0.00877 -0.003216,-0.00592"
         id="path121" /><path
         style="opacity:1;fill:none;fill-opacity:1;stroke:#ccabe2;stroke-width:0.002;stroke-dasharray:none;stroke-opacity:1"
         d="m 0.96270278,0.60599192 0.0575151,0.0891594"
         id="path122" /><path
         style="opacity:1;fill:none;fill-opacity:1;stroke:#ccabe2;stroke-width:0.002;stroke-dasharray:none;stroke-opacity:1"
         d="m 1.0208757,0.56024289 0.00351,0.00592 -0.011474,0.006797 -0.0038,-0.005335"
         id="path123" /><path
         style="opacity:1;fill:none;fill-opacity:1;stroke:#ccabe2;stroke-width:0.002;stroke-dasharray:none;stroke-opacity:1"
         d="m 1.0227027,0.56652788 0.057734,0.0898903"
         id="path124" /></g><g
       inkscape:groupmode="layer"
       id="layer8"
       inkscape:label="filler walls"><path
         style="opacity:1;fill:#ccabe2;fill-opacity:1;stroke:#ccabe2;stroke-width:0.002;stroke-dasharray:none;stroke-opacity:1"
         d="m 0.3775391,0.18387309 0.0138855,-7.308e-5 V 0.43110786 H 0.3773199 Z"
         id="path125" /><path
         style="opacity:1;fill:#ccabe2;fill-opacity:1;stroke:#ccabe2;stroke-width:0.002;stroke-dasharray:none;stroke-opacity:1"
         d="m 0.48124177,0.42664987 v -0.002558 h 0.0334713 v 0.002558 z"
         id="path126" /><path
         style="opacity:1;fill:#ccabe2;fill-opacity:1;stroke:#ccabe2;stroke-width:0.002;stroke-dasharray:none;stroke-opacity:1"
         d="m 0.52633307,0.42701529 h 0.0468453 v -0.007747 h -0.0383678 v 0.005116 h -0.0076 v 0.002996"
         id="path127" /><path
         style="opacity:1;fill:#ccabe2;fill-opacity:1;stroke:#ccabe2;stroke-width:0.002;stroke-dasharray:none;stroke-opacity:1"
         d="m 0.57303214,0.43125402 h 0.0350791 l -4.5939e-4,-0.001714 h -0.0346928 z"
         id="path128" /><path
         style="opacity:1;fill:#ccabe2;fill-opacity:1;stroke:#ccabe2;stroke-width:0.002;stroke-dasharray:none;stroke-opacity:1"
         d="M 0.59722212,0.43132709 V 0.6056265 l 0.007527,0.0114007 0.003069,-0.002339 -1.4616e-4,-0.18350767 z"
         id="path129" /><path
         style="opacity:1;fill:#ccabe2;fill-opacity:1;stroke:#ccabe2;stroke-width:0.002;stroke-dasharray:none;stroke-opacity:1"
         d="m 0.4408277,0.70691747 -0.14543223,0.0944213 0.001608,0.002119 0.14521296,-0.0936905 z"
         id="path130" /><path
         style="opacity:1;fill:#ccabe2;fill-opacity:1;stroke:#ccabe2;stroke-width:0.002;stroke-dasharray:none;stroke-opacity:1"
         d="m 0.29926879,0.80206961 0.0893787,0.13732018 -0.002996,0.001608 -0.0886479,-0.13805099 z"
         id="path131" /><path
         style="opacity:1;fill:#ccabe2;fill-opacity:1;stroke:#ccabe2;stroke-width:0.002;stroke-dasharray:none;stroke-opacity:1"
         d="m 0.38829672,0.94371504 -0.12846761,0.0844393 -0.001654,-0.00227 0.12877767,-0.0844393 z"
         id="path132" /><path
         style="opacity:1;fill:#ccabe2;fill-opacity:1;stroke:#ccabe2;stroke-width:0.002;stroke-dasharray:none;stroke-opacity:1"
         d="m 0.26406658,1.0253638 0.10345622,0.1592668 -0.003824,0.00227 -0.10366294,-0.1589567 0.004858,-0.0031 z"
         id="path133" /><path
         style="opacity:1;fill:#ccabe2;fill-opacity:1;stroke:#ccabe2;stroke-width:0.002;stroke-dasharray:none;stroke-opacity:1"
         d="m 1.2543711,0.61169226 0.00738,0.0114373 0.010305,-0.002485 0.1275638,-0.1003044 -0.00413,-0.004312 z"
         id="path134" /><path
         style="opacity:1;fill:#ccabe2;fill-opacity:1;stroke:#ccabe2;stroke-width:0.002;stroke-dasharray:none;stroke-opacity:1"
         d="m 1.3994744,0.52037693 0.016334,-0.0127527 -0.074945,-0.11440912 -0.018453,0.008258 0.077174,0.1192325 z"
         id="path135" /><path
         style="opacity:1;fill:#ccabe2;fill-opacity:1;stroke:#ccabe2;stroke-width:0.002;stroke-dasharray:none;stroke-opacity:1"
         d="m 1.2147062,0.39088056 c -1.033e-4,-4.6511e-4 0.0046,-2.0672e-4 0.0046,-2.0672e-4 l 0.00594,-0.0311092 -0.0091,-0.1177706 -0.00124,-3.6173e-4 z"
         id="path136" /><path
         style="opacity:1;fill:#ccabe2;fill-opacity:1;stroke:#ccabe2;stroke-width:0.002;stroke-dasharray:none;stroke-opacity:1"
         d="m 0.96376548,0.27832926 h 0.005633 v 0.0894002 h -0.006098 z"
         id="path137" /><path
         style="opacity:1;fill:#ccabe2;fill-opacity:1;stroke:#ccabe2;stroke-width:0.002;stroke-dasharray:none;stroke-opacity:1"
         d="m 0.66569952,0.24131516 v 0.11256506 h -0.001967 V 0.24081218 Z"
         id="path138" /><path
         style="opacity:1;fill:#ccabe2;fill-opacity:1;stroke:#ccabe2;stroke-width:0.002;stroke-dasharray:none;stroke-opacity:1"
         d="m 0.37790452,0.18284995 h 0.16282559 l 0.0176127,-4.3849e-4 -2.1923e-4,-0.015201 -0.0196589,-0.002046 -0.16099857,0.0155664 z"
         id="path139" /><path
         style="opacity:1;fill:#ccabe2;fill-opacity:1;stroke:#ccabe2;stroke-width:0.002;stroke-dasharray:none;stroke-opacity:1"
         d="m 0.58456382,0.61391603 -0.0655774,0.0426847 0.001395,0.001964 0.065164,-0.0419096 z"
         id="path140" /><path
         style="opacity:1;fill:#ccabe2;fill-opacity:1;stroke:#ccabe2;stroke-width:0.002;stroke-dasharray:none;stroke-opacity:1"
         d="m 0.52069176,0.65892621 0.0490409,0.0750342 0.004548,-0.003204 -0.0481107,-0.0751375 z"
         id="path141" /><path
         style="opacity:1;fill:#ccabe2;fill-opacity:1;stroke:#ccabe2;stroke-width:0.002;stroke-dasharray:none;stroke-opacity:1"
         d="m 0.52916668,0.66037313 0.0331763,-0.0204122 -0.004341,-0.006201 -0.0318327,0.0211357 z"
         id="path142" /><path
         style="opacity:1;fill:#ccabe2;fill-opacity:1;stroke:#ccabe2;stroke-width:0.002;stroke-dasharray:none;stroke-opacity:1"
         d="m 0.5462199,0.68579795 0.0321944,-0.0208256 4.6508e-4,0.00124 -0.0320394,0.0205155 z"
         id="path143" /><path
         style="opacity:1;fill:#ccabe2;fill-opacity:1;stroke:#ccabe2;stroke-width:0.002;stroke-dasharray:none;stroke-opacity:1"
         d="m 0.56275636,0.71230796 0.0321944,-0.0212907 0.001447,0.00217 -0.0326078,0.0203605 z"
         id="path144" /><path
         style="opacity:1;fill:#ccabe2;fill-opacity:1;stroke:#ccabe2;stroke-width:0.002;stroke-dasharray:none;stroke-opacity:1"
         d="m 0.60803818,0.85680766 0.003946,-0.002266 0.0489646,0.07352 -0.004823,0.003289 z"
         id="path145" /></g></g><g
     inkscape:groupmode="layer"
     id="layer3"
     inkscape:label="Rooms" /><g
     inkscape:groupmode="layer"
     id="layer4"
     inkscape:label="Nodes" /><g
     inkscape:groupmode="layer"
     id="layer5"
     inkscape:label="Central room nodes" /><path
     style="opacity:1;fill:none;fill-opacity:0.50173;stroke:#873fb0;stroke-width:0.0025;stroke-dasharray:none;stroke-opacity:1"
     d="m 1.3644319,0.18331656 -0.98735851,-3.1006e-4 0,0.24890524 0.0648506,0 v -0.005189 h 0.13037741 v 0.005189 h 0.02419 V 0.60511493 L 0.29466467,0.80126572 0.38565115,0.94172839 0.25724693,1.0254067 0.36401902,1.1883054 0.63434753,1.0132021 1.2532749,0.61161918 l 0.00848,0.0121315 0.00994,-0.002704 0.055323,-0.0426065 0.089086,-0.0703044 -0.075055,-0.11561496 -0.018855,0.008258 -0.027259,-0.042168 -0.00205,-0.001462 2.192e-4,-0.0933251 0.070597,-0.0454567 5.847e-4,-3.6541e-4 z"
     id="path1"
     inkscape:label="main outline line"
     sodipodi:nodetypes="ccccccccccccccccccccccccccc" /><metadata
     id="metadata1"><rdf:RDF><cc:Work
         rdf:about=""><dc:title>Base file for floor 1 of the BARC</dc:title></cc:Work></rdf:RDF></metadata></svg>
