<?xml version="1.0" encoding="UTF-8" standalone="no"?>
<!-- Created with Inkscape (http://www.inkscape.org/) -->

<svg
   width="200cm"
   height="150cm"
   viewBox="0 0 2 1.5"
   version="1.1"
   id="svg1"
   xml:space="preserve"
   inkscape:version="1.4.2 (f4327f4, 2025-05-13)"
   sodipodi:docname="istF1.svg"
   inkscape:export-filename="..\..\Downloads\IST floor 1.png"
   inkscape:export-xdpi="96"
   inkscape:export-ydpi="96"
   xmlns:inkscape="http://www.inkscape.org/namespaces/inkscape"
   xmlns:sodipodi="http://sodipodi.sourceforge.net/DTD/sodipodi-0.dtd"
   xmlns:xlink="http://www.w3.org/1999/xlink"
   xmlns="http://www.w3.org/2000/svg"
   xmlns:svg="http://www.w3.org/2000/svg"
   xmlns:rdf="http://www.w3.org/1999/02/22-rdf-syntax-ns#"
   xmlns:cc="http://creativecommons.org/ns#"
   xmlns:dc="http://purl.org/dc/elements/1.1/"><title
     id="title1">IST first floor</title><sodipodi:namedview
     id="namedview1"
     pagecolor="#505050"
     bordercolor="#eeeeee"
     borderopacity="1"
     inkscape:showpageshadow="0"
     inkscape:pageopacity="0"
     inkscape:pagecheckerboard="0"
     inkscape:deskcolor="#505050"
     inkscape:document-units="cm"
     inkscape:zoom="0.10389563"
     inkscape:cx="4061.7685"
     inkscape:cy="2550.6366"
     inkscape:window-width="3840"
     inkscape:window-height="2120"
     inkscape:window-x="-12"
     inkscape:window-y="-12"
     inkscape:window-maximized="1"
     inkscape:current-layer="layer2"
     showgrid="true"><inkscape:grid
       id="grid68"
       units="cm"
       originx="0"
       originy="0"
       spacingx="0.0099999999"
       spacingy="0.0099999997"
       empcolor="#0099e5"
       empopacity="0.30196078"
       color="#0099e5"
       opacity="0.14901961"
       empspacing="5"
       enabled="true"
       visible="true" /></sodipodi:namedview><defs
     id="defs1"><linearGradient
       id="swatch3"
       inkscape:swatch="solid"><stop
         style="stop-color:#000000;stop-opacity:1;"
         offset="0"
         id="stop3" /></linearGradient></defs><g
     inkscape:groupmode="layer"
     id="layer2"
     inkscape:label="Walls"><path
       style="fill:#bfbfbf;fill-opacity:0.69589;fill-rule:nonzero;stroke:#ccabe2;stroke-width:0.00826;stroke-dasharray:none;stroke-opacity:1"
       d="m 0.18996239,0.99811826 c 0,0 0.36798747,0.25593594 0.83656671,0.24192944 0.4532994,4e-7 0.8467532,-0.27630889 0.8467532,-0.27630889 0,0 -0.00403,-0.42675107 -0.00448,-0.42630088 C 1.8683485,0.53788812 1.4963816,0.2506835 1.0227092,0.26850988 0.54903668,0.28633626 0.37077284,0.41876083 0.19760227,0.51807924 c -0.17317058,0.0993184 -0.0904053,0.42655987 -0.00764,0.48003902 z"
       id="path3"
       sodipodi:nodetypes="ccccssc"
       inkscape:label="Foundation" /><g
       inkscape:groupmode="layer"
       id="layer8"
       inkscape:label="Inner walls for inner classrooms"><path
         style="fill:none;fill-opacity:0.69589;fill-rule:nonzero;stroke:#ccabe2;stroke-width:0.00326001;stroke-dasharray:none;stroke-opacity:1"
         d="m 0.42202369,0.75014055 0.0751255,-6.3665e-4 c 0,0 -0.00382,-0.0391544 -0.007958,-0.0576175 -0.004138,-0.018463 -0.019418,-0.0477492 -0.019418,-0.0487042"
         id="path36"
         sodipodi:nodetypes="ccsc" /><path
         style="fill:none;fill-opacity:0.69589;fill-rule:nonzero;stroke:#ccabe2;stroke-width:0.00326001;stroke-dasharray:none;stroke-opacity:1"
         d="m 0.46913627,0.85741718 c 0,0 0.0219646,-0.0471126 0.0226013,-0.0537975 6.3664e-4,-0.006685 0.004775,-0.0528425 0.004775,-0.0528425"
         id="path37"
         sodipodi:nodetypes="csc" /><path
         style="fill:none;fill-opacity:0.69589;fill-rule:nonzero;stroke:#ccabe2;stroke-width:0.00326001;stroke-dasharray:none;stroke-opacity:1"
         d="m 0.57482125,0.87301524 0.0381994,0.0146431 -0.008595,0.0245113"
         id="path38" /><path
         style="fill:none;fill-opacity:0.69589;fill-rule:nonzero;stroke:#ccabe2;stroke-width:0.00326001;stroke-dasharray:none;stroke-opacity:1"
         d="m 0.58691774,0.83322421 0.0394727,0.0162348 -0.0127332,0.0372444"
         id="path39" /><path
         style="fill:none;fill-opacity:0.69589;fill-rule:nonzero;stroke:#ccabe2;stroke-width:0.00326001;stroke-dasharray:none;stroke-opacity:1"
         d="M 0.64039688,0.8103046 0.62639048,0.849459"
         id="path40" /><path
         style="fill:none;fill-opacity:0.69589;fill-rule:nonzero;stroke:#ccabe2;stroke-width:0.00326001;stroke-dasharray:none;stroke-opacity:1"
         d="M 0.7397153,0.94973237 0.76486323,0.84468403 0.76454491,0.6562337 0.73939698,0.5502304"
         id="path41" /><path
         style="fill:none;fill-opacity:0.69589;fill-rule:nonzero;stroke:#ccabe2;stroke-width:0.00326001;stroke-dasharray:none;stroke-opacity:1"
         d="m 0.64103355,0.69284145 0.0588907,-0.019418 0.0633473,-0.0171898 0.0362894,-0.007958 0.0827654,-0.0120965 0.039791,-0.003183 0.0799005,-0.005093"
         id="path42" /><path
         style="fill:none;fill-opacity:0.69589;fill-rule:nonzero;stroke:#ccabe2;stroke-width:0.00326001;stroke-dasharray:none;stroke-opacity:1"
         d="m 0.60124249,0.58588317 c 3.1834e-4,6.3664e-4 0.0378811,0.10568498 0.0378811,0.10568498"
         id="path43" /><path
         style="fill:none;fill-opacity:0.69589;fill-rule:nonzero;stroke:#ccabe2;stroke-width:0.00326001;stroke-dasharray:none;stroke-opacity:1"
         d="m 0.57227464,0.62885748 0.0381994,-0.0143248"
         id="path44" /><path
         style="fill:none;fill-opacity:0.69589;fill-rule:nonzero;stroke:#ccabe2;stroke-width:0.00326001;stroke-dasharray:none;stroke-opacity:1"
         d="m 0.64039688,0.80903127 0.12319304,0.0362894"
         id="path45" /><path
         style="fill:none;fill-opacity:0.69589;fill-rule:nonzero;stroke:#ccabe2;stroke-width:0.00326001;stroke-dasharray:none;stroke-opacity:1"
         d="m 0.89983441,0.63426905 0.001273,0.10059173 0.10154669,-0.001592"
         id="path46" /><path
         style="fill:none;fill-opacity:0.69589;fill-rule:nonzero;stroke:#ccabe2;stroke-width:0.00326001;stroke-dasharray:none;stroke-opacity:1"
         d="m 1.0029728,0.7698769 -0.0964534,-0.001592 -0.002865,0.0954985 0.0974084,0.006048"
         id="path47" /><path
         style="fill:none;fill-opacity:0.69589;fill-rule:nonzero;stroke:#ccabe2;stroke-width:0.00326001;stroke-dasharray:none;stroke-opacity:1"
         d="m 0.91129423,0.97933689 0.0111415,-0.1136432"
         id="path48" /><path
         style="fill:none;fill-opacity:0.69589;fill-rule:nonzero;stroke:#ccabe2;stroke-width:0.00326001;stroke-dasharray:none;stroke-opacity:1"
         d="m 0.76518155,0.84532069 0.13847281,0.0181447"
         id="path49" /><path
         style="fill:none;fill-opacity:0.69589;fill-rule:nonzero;stroke:#ccabe2;stroke-width:0.00326001;stroke-dasharray:none;stroke-opacity:1"
         d="m 0.77632305,0.54004389 c 0,-6.3666e-4 0.0229196,0.10504832 0.0235563,0.10632165"
         id="path50" /><path
         style="fill:none;fill-opacity:0.69589;fill-rule:nonzero;stroke:#ccabe2;stroke-width:0.00326001;stroke-dasharray:none;stroke-opacity:1"
         d="m 0.91097591,0.51998922 0.0105048,0.11173322"
         id="path51" /><path
         style="fill:none;fill-opacity:0.69589;fill-rule:nonzero;stroke:#ccabe2;stroke-width:0.00326001;stroke-dasharray:none;stroke-opacity:1"
         d="M 0.80096187,0.85211665 0.77867773,0.95948557"
         id="path52" /><path
         style="fill:none;fill-opacity:0.69589;fill-rule:nonzero;stroke:#ccabe2;stroke-width:0.00326001;stroke-dasharray:none;stroke-opacity:1"
         d="m 0.75639362,0.88227899 0.0357896,0.007428"
         id="path53" /><path
         style="fill:none;fill-opacity:0.69589;fill-rule:nonzero;stroke:#ccabe2;stroke-width:0.00326001;stroke-dasharray:none;stroke-opacity:1"
         d="m 1.0435596,0.63076744 0.1074358,0.004775 -0.00318,0.10154668 -0.1034566,6.3667e-4"
         id="path54"
         sodipodi:nodetypes="cccc" /><path
         style="fill:none;fill-opacity:0.69589;fill-rule:nonzero;stroke:#ccabe2;stroke-width:0.00326001;stroke-dasharray:none;stroke-opacity:1"
         d="m 1.0449921,0.58747479 0.041064,0.00191 c 0,0 -9.55e-4,0.041701 -9.55e-4,0.0410643"
         id="path55" /><path
         style="fill:none;fill-opacity:0.69589;fill-rule:nonzero;stroke:#ccabe2;stroke-width:0.00326001;stroke-dasharray:none;stroke-opacity:1"
         d="m 1.0889214,0.51616927 -0.00255,0.0722605"
         id="path56" /><path
         style="fill:none;fill-opacity:0.69589;fill-rule:nonzero;stroke:#ccabe2;stroke-width:0.00326001;stroke-dasharray:none;stroke-opacity:1"
         d="m 1.0443555,0.76573863 0.099,3.1832e-4 0.00127,0.0951802 6.366e-4,0.002865 -0.059209,0.006048 -0.042338,6.3664e-4"
         id="path57" /><path
         style="fill:none;fill-opacity:0.69589;fill-rule:nonzero;stroke:#ccabe2;stroke-width:0.00326001;stroke-dasharray:none;stroke-opacity:1"
         d="m 1.0863748,0.91057798 -0.041064,0.001592"
         id="path58" /><path
         style="fill:none;fill-opacity:0.69589;fill-rule:nonzero;stroke:#ccabe2;stroke-width:0.00326001;stroke-dasharray:none;stroke-opacity:1"
         d="m 1.0838282,0.87269692 0.007,0.10854994"
         id="path59" /><path
         style="fill:none;fill-opacity:0.69589;fill-rule:nonzero;stroke:#ccabe2;stroke-width:0.00326001;stroke-dasharray:none;stroke-opacity:1"
         d="m 1.1446289,0.86473873 0.078627,-0.009868 0.068441,-0.0159164 0.1136432,-0.0311962"
         id="path60" /><path
         style="fill:none;fill-opacity:0.69589;fill-rule:nonzero;stroke:#ccabe2;stroke-width:0.00326001;stroke-dasharray:none;stroke-opacity:1"
         d="M 1.2493589,0.96214717 1.2321691,0.85518886"
         id="path61" /><path
         style="fill:none;fill-opacity:0.69589;fill-rule:nonzero;stroke:#ccabe2;stroke-width:0.00326001;stroke-dasharray:none;stroke-opacity:1"
         d="m 1.4053397,0.81094124 0.036289,0.10122839"
         id="path62" /><path
         style="fill:none;fill-opacity:0.69589;stroke:#ccabe2;stroke-width:0.00326001"
         d="M 1.2468122,0.53526898 1.2308962,0.6415906 1.1513142,0.6358606"
         id="path63" /><path
         style="fill:none;fill-opacity:0.69589;stroke:#ccabe2;stroke-width:0.00326001"
         d="m 1.4413108,0.5852465 -0.014961,0.0429743 0.044248,0.0165531"
         id="path64" /><path
         style="fill:none;fill-opacity:0.69589;stroke:#ccabe2;stroke-width:0.00326001"
         d="m 1.4266677,0.62822081 -0.021328,0.062074"
         id="path65" /><path
         style="fill:none;fill-opacity:0.69589;stroke:#ccabe2;stroke-width:0.00326001"
         d="m 1.4129796,0.66864851 0.046794,0.0146431"
         id="path66" /><path
         style="fill:none;fill-opacity:0.69589;stroke:#ccabe2;stroke-width:0.00326001"
         d="m 1.2318508,0.64127228 0.1741256,0.0496592"
         id="path67" /><path
         style="fill:none;fill-opacity:0.69589;stroke:#ccabe2;stroke-width:0.00326001"
         d="m 1.2897866,0.66037197 0.00159,0.17730885"
         id="path68" /></g><g
       inkscape:groupmode="layer"
       id="layer4"
       inkscape:label="Inner walls for perimeter classrooms"><path
         style="fill:none;fill-opacity:0.69589;fill-rule:nonzero;stroke:#ccabe2;stroke-width:0.00326001;stroke-dasharray:none;stroke-opacity:1"
         d="m 0.39305581,0.88033679 c -0.001592,-9.5496e-4 -0.0467942,0.0951802 -0.0480676,0.0948618"
         id="path8" /><path
         style="fill:none;fill-opacity:0.69589;fill-rule:nonzero;stroke:#ccabe2;stroke-width:0.00326001;stroke-dasharray:none;stroke-opacity:1"
         d="m 0.47040958,1.0006649 0.0276946,-0.0681223"
         id="path9" /><path
         style="fill:none;fill-opacity:0.69589;fill-rule:nonzero;stroke:#ccabe2;stroke-width:0.00326001;stroke-dasharray:none;stroke-opacity:1"
         d="m 0.51561221,1.0197646 0.0267396,-0.0693956"
         id="path10" /><path
         style="fill:none;fill-opacity:0.69589;fill-rule:nonzero;stroke:#ccabe2;stroke-width:0.00326001;stroke-dasharray:none;stroke-opacity:1"
         d="M 0.62320714,1.0932984 0.65472166,0.98665844"
         id="path11" /><path
         style="fill:none;fill-opacity:0.69589;fill-rule:nonzero;stroke:#ccabe2;stroke-width:0.00326001;stroke-dasharray:none;stroke-opacity:1"
         d="M 0.70947411,0.99970992 0.67732295,1.1088965"
         id="path12" /><path
         style="fill:none;fill-opacity:0.69589;fill-rule:nonzero;stroke:#ccabe2;stroke-width:0.00326001;stroke-dasharray:none;stroke-opacity:1"
         d="M 0.79765103,1.1305428 0.81452245,1.0204012"
         id="path13" /><path
         style="fill:none;fill-opacity:0.69589;fill-rule:nonzero;stroke:#ccabe2;stroke-width:0.00326001;stroke-dasharray:none;stroke-opacity:1"
         d="M 0.89792443,1.1442309 0.90811094,1.0324977"
         id="path14" /><path
         style="fill:none;fill-opacity:0.69589;fill-rule:nonzero;stroke:#ccabe2;stroke-width:0.00326001;stroke-dasharray:none;stroke-opacity:1"
         d="M 1.1755067,1.138501 1.1634102,1.0280411"
         id="path15" /><path
         style="fill:none;fill-opacity:0.69589;fill-rule:nonzero;stroke:#ccabe2;stroke-width:0.00326001;stroke-dasharray:none;stroke-opacity:1"
         d="M 1.3060213,1.1178097 1.2837383,1.0102147"
         id="path16" /><path
         style="fill:none;fill-opacity:0.69589;fill-rule:nonzero;stroke:#ccabe2;stroke-width:0.00326001;stroke-dasharray:none;stroke-opacity:1"
         d="M 1.3906966,0.98156518 1.4234844,1.0904334"
         id="path17" /><path
         style="fill:none;fill-opacity:0.69589;fill-rule:nonzero;stroke:#ccabe2;stroke-width:0.00326001;stroke-dasharray:none;stroke-opacity:1"
         d="m 1.5033848,0.94591242 0.028968,0.0706689"
         id="path18" /><path
         style="fill:none;fill-opacity:0.69589;fill-rule:nonzero;stroke:#ccabe2;stroke-width:0.00326001;stroke-dasharray:none;stroke-opacity:1"
         d="m 1.5476325,0.92935935 0.028649,0.0646206"
         id="path19" /><path
         style="fill:none;fill-opacity:0.69589;fill-rule:nonzero;stroke:#ccabe2;stroke-width:0.00326001;stroke-dasharray:none;stroke-opacity:1"
         d="m 1.6520441,0.8758802 0.048068,0.0923152"
         id="path20" /><path
         style="fill:none;fill-opacity:0.69589;fill-rule:nonzero;stroke:#ccabe2;stroke-width:0.00326001;stroke-dasharray:none;stroke-opacity:1"
         d="M 1.7010667,0.5209442 1.6494977,0.615806"
         id="path21" /><path
         style="fill:none;fill-opacity:0.69589;fill-rule:nonzero;stroke:#ccabe2;stroke-width:0.00326001;stroke-dasharray:none;stroke-opacity:1"
         d="m 1.5759637,0.49547793 -0.029923,0.0738522"
         id="path22" /><path
         style="fill:none;fill-opacity:0.69589;fill-rule:nonzero;stroke:#ccabe2;stroke-width:0.00326001;stroke-dasharray:none;stroke-opacity:1"
         d="m 1.5291694,0.48051651 -0.027058,0.0690772"
         id="path23" /><path
         style="fill:none;fill-opacity:0.69589;fill-rule:nonzero;stroke:#ccabe2;stroke-width:0.00326001;stroke-dasharray:none;stroke-opacity:1"
         d="M 1.4209378,0.40921098 1.3913333,0.51425929"
         id="path24" /><path
         style="fill:none;fill-opacity:0.69589;fill-rule:nonzero;stroke:#ccabe2;stroke-width:0.00326001;stroke-dasharray:none;stroke-opacity:1"
         d="m 1.3034747,0.37865147 c 0,0 -0.02483,0.10663997 -0.024193,0.10759496"
         id="path25" /><path
         style="fill:none;fill-opacity:0.69589;fill-rule:nonzero;stroke:#ccabe2;stroke-width:0.00326001;stroke-dasharray:none;stroke-opacity:1"
         d="M 1.1732784,0.35796013 1.1615003,0.47128498"
         id="path26" /><path
         style="fill:none;fill-opacity:0.69589;fill-rule:nonzero;stroke:#ccabe2;stroke-width:0.00326001;stroke-dasharray:none;stroke-opacity:1"
         d="m 0.86959322,0.35827845 0.0127331,0.11268821"
         id="path27" /><path
         style="fill:none;fill-opacity:0.69589;fill-rule:nonzero;stroke:#ccabe2;stroke-width:0.00326001;stroke-dasharray:none;stroke-opacity:1"
         d="m 0.74862847,0.3767415 0.0226013,0.10982325"
         id="path28" /><path
         style="fill:none;fill-opacity:0.69589;fill-rule:nonzero;stroke:#ccabe2;stroke-width:0.00326001;stroke-dasharray:none;stroke-opacity:1"
         d="m 0.6203422,0.41048429 0.0318328,0.103775"
         id="path29" /><path
         style="fill:none;fill-opacity:0.69589;fill-rule:nonzero;stroke:#ccabe2;stroke-width:0.00326001;stroke-dasharray:none;stroke-opacity:1"
         d="m 0.51306557,0.48210816 0.0276946,0.0674856"
         id="path30" /><path
         style="fill:none;fill-opacity:0.69589;fill-rule:nonzero;stroke:#ccabe2;stroke-width:0.00326001;stroke-dasharray:none;stroke-opacity:1"
         d="m 0.46754464,0.50248116 0.0302412,0.0681222"
         id="path31" /><path
         style="fill:none;fill-opacity:0.69589;fill-rule:nonzero;stroke:#ccabe2;stroke-width:0.00326001;stroke-dasharray:none;stroke-opacity:1"
         d="m 0.34116832,0.52571911 0.0506142,0.0942252"
         id="path32" /></g><g
       inkscape:groupmode="layer"
       id="layer5"
       inkscape:label="Inner perimeters"
       style="display:inline"><g
         inkscape:groupmode="layer"
         id="layer6"
         inkscape:label="outer class perimeters"><path
           style="display:inline;fill:none;fill-opacity:0.69589;fill-rule:nonzero;stroke:#ccabe2;stroke-width:0.00326;stroke-dasharray:none;stroke-opacity:1"
           d="m 0.29628403,0.68106332 0.0958168,-0.0592091 0.10600333,-0.0506142 0.042656,-0.0190997 0.11141488,-0.0366078 0.12160141,-0.0273762 0.10854992,-0.0155981 0.11714479,-0.007003 -0.002228,-0.11427987"
           id="path4"
           inkscape:label="Northeast outer" /><path
           style="display:inline;fill:none;fill-opacity:0.69589;fill-rule:nonzero;stroke:#ccabe2;stroke-width:0.00326001;stroke-dasharray:none;stroke-opacity:1"
           d="m 1.0472204,0.35286688 c -9.55e-4,-6.3667e-4 -6.366e-4,0.11396151 -6.366e-4,0.11396151 l 0.1152348,0.00573 c 0,0 0.1174631,0.0149614 0.1190548,0.0168714 0.00159,0.00191 0.1101415,0.0261029 0.1101415,0.0261029 l 0.1107783,0.0362894 0.043611,0.0178264 0.1056849,0.0490226 0.095817,0.0582541"
           id="path5"
           inkscape:label="Southeast outer" /><path
           style="display:inline;fill:none;fill-opacity:0.69589;fill-rule:nonzero;stroke:#ccabe2;stroke-width:0.00326001;stroke-dasharray:none;stroke-opacity:1"
           d="m 0.29810616,0.82285468 c 0.001801,4.5019e-4 0.0945387,0.0549225 0.0945387,0.0549225 l 0.10534309,0.0517712 0.0441181,0.0189077 0.1107453,0.0355645 0.0814833,0.0207085 0.0810331,0.014856 0.0918376,0.011254 0.0940886,0.00405 c 0,0 -0.003602,0.1152472 -0.002251,0.1147971"
           id="path6"
           sodipodi:nodetypes="cccccccccc"
           inkscape:label="Northwest outer" /><path
           style="display:inline;fill:none;fill-opacity:0.69589;fill-rule:nonzero;stroke:#ccabe2;stroke-width:0.00326001;stroke-dasharray:none;stroke-opacity:1"
           d="m 1.0512643,1.1460869 c -0.0018,0 -0.0027,-0.1125461 -0.0027,-0.1125461 l 0.112546,-0.00675 0.1229003,-0.018007 0.1039925,-0.0274612 0.1161475,-0.0369151 0.041417,-0.0166568 0.1057932,-0.051321 0.09724,-0.0603246"
           id="path7"
           inkscape:label="Southwest outer" /></g><g
         inkscape:groupmode="layer"
         id="layer7"
         inkscape:label="Inner class perimeters"><path
           style="fill:none;fill-opacity:0.69589;fill-rule:nonzero;stroke:#ccabe2;stroke-width:0.00326001;stroke-dasharray:none;stroke-opacity:1"
           d="m 0.39719408,0.67628838 c 0,0 0.0248296,0.0458393 0.022283,0.0738522 -0.002547,0.0280129 -0.0226013,0.0732155 -0.0226013,0.0732155 l 0.0681222,0.0356528 0.0528425,0.022283 c 0,0 0.0226013,-0.0477492 0.0248296,-0.0582541 0.002228,-0.0105048 0.005093,-0.0254663 0.004775,-0.0334245 -3.1832e-4,-0.007958 -0.002547,-0.0162348 -0.002547,-0.0162348 l -0.0490226,-9.5537e-4 0.002865,-0.0413827 0.0509325,-0.002546 c 0,0 -0.002228,-0.0343795 -0.006685,-0.0455209 -0.004457,-0.0111415 -0.0254663,-0.0646206 -0.0254663,-0.0646206 z"
           id="path33"
           inkscape:label="North inner"
           sodipodi:nodetypes="cccccccccccscc" /><path
           style="fill:none;fill-opacity:0.69589;fill-rule:nonzero;stroke:#ccabe2;stroke-width:0.00326001;stroke-dasharray:none;stroke-opacity:1"
           d="m 0.56056352,0.60046372 0.0423173,-0.0157564 0.17377108,-0.0468192 0.13370468,-0.0189077 0.0886863,-0.004052 0.004952,0.11119549 -0.00225,0.35879674 -0.0895866,-0.005402 -0.1337047,-0.0184575 -0.17512162,-0.046369 -0.041417,-0.012155 -0.003151,-9.0038e-4 0.0157564,-0.0324132 0.0112546,-0.0351144 0.008553,-0.0423173 0.046369,0.017107 4.5019e-4,-0.11569731 -0.046369,0.022059 -0.0184576,-0.0697786 z"
           id="path34"
           inkscape:label="North Middle inner" /><path
           style="fill:none;fill-opacity:0.69589;fill-rule:nonzero;stroke:#ccabe2;stroke-width:0.00326001;stroke-dasharray:none;stroke-opacity:1"
           d="m 1.4859078,0.60046372 -0.042317,-0.0157564 -0.1737711,-0.0468192 -0.1337047,-0.0189077 -0.088686,-0.004052 -0.00495,0.11119549 0.00225,0.35879674 0.089587,-0.005402 0.1337047,-0.0184575 0.1751217,-0.046369 0.041417,-0.012155 0.00315,-9.0038e-4 -0.015756,-0.0324132 -0.011255,-0.0351144 -0.00855,-0.0423173 -0.046369,0.017107 -4.502e-4,-0.11569731 0.046369,0.022059 0.018458,-0.0697786 z"
           id="path35"
           inkscape:label="South Middle inner" /><use
           x="0"
           y="0"
           xlink:href="#path33"
           id="use36"
           inkscape:label="South inner"
           transform="matrix(-1,0,0,1,2.0419186,0)" /></g></g><path
       style="fill:none;fill-opacity:1;fill-rule:nonzero;stroke:#873fb0;stroke-width:0.00826;stroke-dasharray:none;stroke-opacity:1"
       d="M 0.42777234,0.47192363 0.24049696,0.5752765 c 0,0 -0.0248047,0.0103353 -0.0194303,0.0289388 0.005374,0.0186035 0.007441,0.0252181 0.0181901,0.0343132 0.0107487,0.009095 0.0566374,0.0450619 0.0566374,0.0450619 v 0.13849283 c 0,0 -0.0926042,0.0549837 -0.0785482,0.0785482 0.014056,0.0235644 0.0376205,0.0310059 0.0376205,0.0310059 L 0.4368674,1.0316827 c 0,0 0.008682,0.00413 0.0144694,-4.134e-4 0.005788,-0.00455 0.0115755,-0.011162 0.0144694,-0.01695 0.002894,-0.00579 0.006201,-0.010749 0.006201,-0.00909 0,0.00165 0.0396875,0.018603 0.0396875,0.018603 0,0 -0.007028,0.01695 -0.004134,0.027285 0.002894,0.010335 0.0161231,0.013229 0.0177767,0.014883 0.001654,0.00165 0.14138671,0.045889 0.14138671,0.045889 l 0.12906058,0.023398 0.10061617,0.013506 0.10264198,0.0045 0.0515461,-0.00203 0.1253763,-0.00698 0.1289777,-0.020483 0.1192988,-0.029937 0.097015,-0.030613 c 0,0 0.018007,-0.00495 0.017557,-0.016882 -4.502e-4,-0.01193 -0.00338,-0.025435 -0.00338,-0.025435 0,0 0.041417,-0.022284 0.040517,-0.0229594 -9.004e-4,-6.7529e-4 0.0063,0.0189077 0.020483,0.0249852 0.014181,0.00608 0.049295,-0.016207 0.049295,-0.016207 l 0.1661181,-0.0943136 c 0,0 0.016432,-0.007203 0.015306,-0.0209336 -0.00113,-0.0137306 -0.016882,-0.029262 -0.016882,-0.029262 0,0 -0.011255,-0.0175572 -0.016657,-0.0204834 -0.0054,-0.002926 -0.041642,-0.0254354 -0.041642,-0.0254354 0,0 -0.00225,-0.13775634 -0.00248,-0.13865672 -2.251e-4,-9.0038e-4 0.04772,-0.031738 0.04772,-0.031738 0,0 0.019358,-0.022059 0.020934,-0.0315129 0.00158,-0.009454 0.00383,-0.0249852 -0.00113,-0.0321882 -0.00495,-0.007203 -0.044343,-0.0254354 -0.044343,-0.0254354 L 1.7049316,0.51830512 1.622773,0.47508744 c 0,0 -0.016657,-0.0105793 -0.024085,-0.008779 -0.00743,0.001801 -0.021609,0.0254354 -0.021609,0.0254354 l -0.043443,-0.014631 c 0,0 0.00495,-0.0353395 -0.00405,-0.0416421 -0.009,-0.006303 -0.1062434,-0.0308376 -0.1071438,-0.0315129 -9.004e-4,-6.7527e-4 -0.1156973,-0.0301623 -0.1156973,-0.0301623 l -0.029037,-0.008103 -0.1021918,-0.0135055 -0.1292029,-0.004502 -0.0479446,9.0035e-4 -0.12830246,0.004952 -0.12132463,0.0200332 c 0,0 -0.12717703,0.0324133 -0.12717703,0.0315129 0,-9.0038e-4 -0.0918376,0.0265609 -0.0918376,0.0265609 0,0 -0.0182325,0.001576 -0.0204834,0.0126052 -0.002251,0.0110295 -0.001576,0.0186826 0,0.0252103 0.001576,0.006528 0.002701,0.007878 0.003601,0.008103 9.0037e-4,2.2511e-4 -0.0447933,0.0191328 -0.0447933,0.0191328 0,0 -0.0130553,-0.0249852 -0.0202583,-0.0276863 -0.007203,-0.002701 -0.02002,0.002914 -0.0200205,0.002914 z"
       id="path2"
       inkscape:label="Outer perimeter" /></g><g
     inkscape:groupmode="layer"
     id="layer3"
     inkscape:label="Nodes"><circle
       style="fill:#ea0000;fill-opacity:0.69589;stroke:none;stroke-width:0.00326001"
       id="path69"
       cx="0.32047698"
       cy="0.7499814"
       r="0.0024999999"
       inkscape:label="northEntry" /><circle
       style="fill:#ea0000;fill-opacity:0.69589;stroke:none;stroke-width:0.00326001"
       id="circle76"
       cx="1.7300345"
       cy="0.7499814"
       r="0.0024999999"
       inkscape:label="southEntry" /><g
       inkscape:groupmode="layer"
       id="layer9"
       inkscape:label="eastHallway"><circle
         style="fill:#ea0000;fill-opacity:0.69589;stroke:none;stroke-width:0.00326001"
         id="circle69"
         cx="0.36663458"
         cy="0.67039931"
         r="0.0024999999"
         inkscape:label="eastHallway1" /><circle
         style="fill:#ea0000;fill-opacity:0.69589;stroke:none;stroke-width:0.00326001"
         id="circle70"
         cx="0.53184694"
         cy="0.58858895"
         r="0.0024999999"
         inkscape:label="eastHallway2" /><circle
         style="fill:#ea0000;fill-opacity:0.69589;stroke:none;stroke-width:0.00326001"
         id="circle71"
         cx="0.7747314"
         cy="0.51441848"
         r="0.0024999999"
         inkscape:label="eastHallway3" /><circle
         style="fill:#ea0000;fill-opacity:0.69589;stroke:none;stroke-width:0.00326001"
         id="circle72"
         cx="1.0244905"
         cy="0.49040705"
         r="0.0024999999"
         inkscape:label="eastHallway4" /><circle
         style="fill:#ea0000;fill-opacity:0.69589;stroke:none;stroke-width:0.00326001"
         id="circle73"
         cx="1.2734423"
         cy="0.5165177"
         r="0.0024999999"
         inkscape:label="eastHallway5" /><circle
         style="fill:#ea0000;fill-opacity:0.69589;stroke:none;stroke-width:0.00326001"
         id="circle74"
         cx="1.5138406"
         cy="0.58584607"
         r="0.0024999999"
         inkscape:label="eastHallway6" /><circle
         style="fill:#ea0000;fill-opacity:0.69589;stroke:none;stroke-width:0.00326001"
         id="circle75"
         cx="1.6651025"
         cy="0.65742534"
         r="0.0024999999"
         inkscape:label="eastHallway7" /></g><g
       inkscape:groupmode="layer"
       id="layer10"
       inkscape:label="westHallway"><circle
         style="fill:#ea0000;fill-opacity:0.69589;stroke:none;stroke-width:0.00326001"
         id="circle82"
         cx="0.36663458"
         cy="0.83529335"
         r="0.0024999999"
         inkscape:label="westHallway1" /><circle
         style="fill:#ea0000;fill-opacity:0.69589;stroke:none;stroke-width:0.00326001"
         id="circle81"
         cx="0.53184694"
         cy="0.91646707"
         r="0.0024999999"
         inkscape:label="westHallway2" /><circle
         style="fill:#ea0000;fill-opacity:0.69589;stroke:none;stroke-width:0.00326001"
         id="circle77"
         cx="1.6651025"
         cy="0.8414191"
         r="0.0024999999"
         inkscape:label="westHallway7" /><circle
         style="fill:#ea0000;fill-opacity:0.69589;stroke:none;stroke-width:0.00326001"
         id="circle74-8"
         cx="1.5153383"
         cy="0.91255093"
         inkscape:label="westHallway6"
         r="0.0024999999" /><circle
         style="fill:#ea0000;fill-opacity:0.69589;stroke:none;stroke-width:0.00326001"
         id="circle78"
         cx="1.2734423"
         cy="0.98446023"
         r="0.0024999999"
         inkscape:label="westHallway5" /><circle
         style="fill:#ea0000;fill-opacity:0.69589;stroke:none;stroke-width:0.00326001"
         id="circle79"
         cx="1.0244905"
         cy="1.0105554"
         r="0.0024999999"
         inkscape:label="westHallway4" /><circle
         style="fill:#ea0000;fill-opacity:0.69589;stroke:none;stroke-width:0.00326001"
         id="circle80"
         cx="0.7747314"
         cy="0.98809093"
         r="0.0024999999"
         inkscape:label="westHallway3" /></g><circle
       style="fill:#ea0000;fill-opacity:0.69589;stroke:none;stroke-width:0.00326001"
       id="circle83"
       cx="1.0232453"
       cy="0.7499814"
       r="0.0024999999"
       inkscape:label="centerHallway" /><circle
       style="fill:#ea0000;fill-opacity:0.69589;stroke:none;stroke-width:0.00326001"
       id="circle84"
       cx="1.4222111"
       cy="0.7499814"
       r="0.0024999999"
       inkscape:label="mosaicCafe" /><circle
       style="fill:#ea0000;fill-opacity:0.69589;stroke:none;stroke-width:0.00326001"
       id="circle85"
       cx="1.4721886"
       cy="0.71687526"
       r="0.0024999999"
       inkscape:label="southHallway1" /><ellipse
       style="fill:#ea0000;fill-opacity:0.69589;stroke:none;stroke-width:0.00326001"
       id="circle86"
       cx="1.4721886"
       cy="0.79168242"
       inkscape:label="southHallway2"
       rx="1.9999999e-05"
       ry="0.0024999999" /></g><metadata
     id="metadata1"><rdf:RDF><cc:Work
         rdf:about=""><dc:title>IST first floor</dc:title><dc:creator><cc:Agent><dc:title>Jsut a bird</dc:title></cc:Agent></dc:creator><dc:subject><rdf:Bag><rdf:li>Map</rdf:li></rdf:Bag></dc:subject><dc:description>Florida Polytechnic University IST building first floor map</dc:description></cc:Work></rdf:RDF></metadata></svg>
